<svg xmlns="http://www.w3.org/2000/svg" width="238" height="212"><path d="M103.009 10.549c-3.02.843-5.923 1.965-6.45 2.492-.528.528-2.051.959-3.386.959-4.046 0-17.019 7.89-24.362 14.817-8.55 8.066-15.791 19.592-19.514 31.065-2.408 7.42-2.785 10.147-2.71 19.618.147 18.559.719 21.148 7.946 36 2.933 6.027 5.876 10.024 11.93 16.207C74.654 140.071 84.655 147 88.538 147c1.186 0 3.162.872 4.391 1.939 2.321 2.013 7.787 3.678 8.788 2.678.315-.316-.504-1.005-1.822-1.532-1.738-.695-1.915-.976-.645-1.022 2.482-.09 2.249-.69-2.262-5.814-2.207-2.507-3.894-4.675-3.75-4.817.144-.142 2.287.133 4.762.611 7.641 1.477 14.976 1.182 15.672-.63.335-.872-.504-4.855-1.863-8.85l-2.472-7.263 11.779.485 11.778.485.687-2.737c.699-2.785-.061-14.076-1.241-18.429-.601-2.215-.43-2.348 2.255-1.761 1.598.349 6.568.928 11.044 1.287 7.348.588 8.235.467 9.113-1.239 1.669-3.24 2.202-9.643 1.325-15.891-.463-3.3-.673-6.29-.465-6.646.207-.355 3.831.452 8.052 1.792 4.222 1.341 8.218 2.23 8.881 1.975 1.701-.653 2.636-10.138 1.614-16.371-.473-2.888-.65-5.25-.394-5.25.257 0 2.613 1.575 5.235 3.5 4.827 3.544 7 4.32 7 2.5 0-.55-.503-1-1.118-1-2.654 0-13.51-14.788-14.487-19.735-.492-2.493-.256-3.381 1.034-3.876 3.625-1.391 10.781 9.408 12.168 18.361.37 2.384 1.208 4.25 1.909 4.25.688 0 1.809 1.347 2.492 2.994 1.327 3.205.747 4.654-4.321 10.797-7.517 9.11-35.952 38.172-47.677 48.728-12.441 11.201-22.777 19.818-27.308 22.765-4.562 2.968-4.691 3.172-2.517 3.977 2.874 1.062 17.911 1.244 23.575.284 4.105-.696 5.982-2.545 2.583-2.545-3.716 0 .07-1.359 7.279-2.612 4.217-.733 7.856-1.523 8.088-1.755.232-.231-.755-1.597-2.193-3.035-2.521-2.521-2.613-4.806-.182-4.506.646.08 4.164.092 7.818.026 7.807-.139 8.429-.898 6.363-7.765-.777-2.582-1.205-5.03-.952-5.441.254-.411 2.039-.311 3.967.221 1.928.533 3.95.694 4.492.359.543-.336.987-.133.987.449 0 1.37 3.683 1.38 4.529.013.635-1.028 1.268-7.235 1.403-13.755l.068-3.301 3.457 2.637c1.901 1.45 3.882 2.374 4.401 2.053.52-.322 1.263-3.32 1.651-6.664.388-3.343 1.073-7.281 1.523-8.751.805-2.631.829-2.637 1.51-.423.38 1.238 1.044 2.25 1.475 2.25 1.656 0 3.396-10.933 3.262-20.5-.138-9.864-2.723-22.208-4.667-22.291-1.157-.05-2.577-2.319-2.597-4.15-.011-1.022.412-.877 1.453.5 2.764 3.654 1.533.19-2.578-7.258-2.26-4.094-5.072-8.56-6.25-9.924l-2.14-2.48-5.5 4.908c-5.327 4.755-5.505 4.829-5.655 2.378-.317-5.171-8.48-8.249-9.162-3.454-.384 2.701 4.237 7.708 6.361 6.892 3.096-1.187 1.105 1.204-8.167 9.812-5.293 4.913-9.052 8.019-8.354 6.901 3.096-4.956-2.575-10.982-7.735-8.221-4.382 2.345-2.419 9.223 3.05 10.685 2.822.755 2.786.806-7.802 10.98C125.686 81.4 120.76 86 120.588 86c-.171 0-.105-1.075.146-2.388 1.044-5.46-4.656-9.204-9.34-6.135-3.407 2.233-3.347 7.853.108 10.116 1.421.932 3.446 1.392 4.689 1.067 1.342-.351-2.031 3.659-8.735 10.384C101.449 105.07 96.46 110 96.37 110c-.091 0-.099-1.4-.017-3.11.207-4.373-4.148-7.76-7.824-6.085-1.983.903-2.529 1.886-2.529 4.551 0 4.002 1.987 5.977 6.012 5.977 2.797 0 2.616.293-4.803 7.789-6.143 6.205-7.773 7.397-8.024 5.867-.322-1.962-5.568-6.989-7.293-6.989-1.65 0-2.202 3.025-1.023 5.612.623 1.367 2.48 3.052 4.127 3.744l2.996 1.26-3.347 3.244-3.347 3.244-1.672-2.552c-1.455-2.22-1.474-2.552-.149-2.552 2.096 0 1.923-1.601-.977-9-1.375-3.509-2.5-6.719-2.5-7.133 0-.415 1.936.102 4.303 1.149s6.304 2.034 8.75 2.194c4.425.289 4.448.272 4.732-3.21.157-1.925-.361-6.875-1.151-11s-1.321-7.622-1.18-7.772c.141-.15 3.134.406 6.651 1.235 9.553 2.252 14.531 2.034 16.288-.713 1.514-2.366 1.558-10.801.105-20.109-.697-4.468-.607-4.811 1.122-4.266 3.832 1.208 14.02 2.109 18.356 1.625 6.994-.781 8.438-5.554 5.673-18.75-.721-3.437-1.274-6.25-1.23-6.25.045 0 3.608.675 7.919 1.5 10.451 2 14.361 1.937 15.516-.25 1.112-2.106.054-9.38-2.092-14.377l-1.557-3.627 7.888 2.586c6.335 2.077 8.136 2.339 9.146 1.329 1.009-1.009.82-2.054-.96-5.304-1.728-3.155-1.875-3.916-.666-3.452.853.327 1.725.595 1.937.595.213 0 .151.615-.137 1.367-.527 1.374 4.938 7.633 6.664 7.633 3.713 0-2.677-7.801-10.862-13.259-8.732-5.823-11.798-7.347-21.049-10.456-9.785-3.289-28.47-4.162-37.157-1.736M114 12.062c3.575.445 8.75 1.031 11.5 1.303l5 .493-4-1.352c-2.2-.744-7.375-1.33-11.5-1.302l-7.5.05 6.5.808m18.75.588c3.241 2.296 2.781 3.341-1.5 3.413-3.511.06-3.591.127-1.258 1.058 1.371.547 2.853 1.637 3.292 2.423.656 1.172 1.533.944 4.876-1.268 2.48-1.642 3.54-2.857 2.708-3.104-.753-.223-3.393-1.241-5.868-2.261-3.488-1.437-3.994-1.496-2.25-.261m-15.854 5.885c3.396 3.867 3.986 6.913 1.522 7.858-.87.334-6.045.607-11.5.607S97 27.17 97 27.378s.675 1.993 1.5 3.968c.825 1.974 1.5 5.621 1.5 8.103 0 4.037-.277 4.582-2.625 5.172-1.443.362-6.281.4-10.75.084l-8.125-.574.341 9.272c.288 7.819.065 9.548-1.422 11.035-1.986 1.986-7.606 1.581-12.289-.885l-2.63-1.385-1 11.087c-.658 7.291-1.432 11.23-2.263 11.504-.694.229-2.831-1.153-4.75-3.072L51 78.2l.03 5.15c.024 3.986.261 4.754 1.05 3.4.561-.963 1.364-1.75 1.784-1.75 1.42 0 4.008 6.771 3.496 9.145-.466 2.158-.316 2.105 1.799-.645 1.269-1.65 4.256-5.102 6.638-7.672 4.089-4.411 4.203-4.69 2.05-5-1.254-.18-2.97-1.565-3.814-3.078-1.377-2.471-1.377-3.029 0-5.5 2.967-5.32 8.36-3.359 8.18 2.975-.088 3.079.124 2.939 8.753-5.785 7.566-7.648 8.532-8.989 6.689-9.281C84.557 59.668 82 57.057 82 54.384c0-3.373 3.882-6.628 6.99-5.861 3.423.844 4.272 1.861 4.401 5.27.106 2.829.367 2.668 9.235-5.691l9.126-8.602-2.987-.646c-1.642-.356-3.691-1.352-4.553-2.213-3.746-3.746 3.644-9.394 8.729-6.672 1.829.978 2.586 2.862 2.153 5.355-.169.969 1.349-.101 9.672-6.824l6.19-5-3.088-.646c-5.972-1.25-7.814-6.16-2.679-7.14 1.271-.243-.773-.503-4.543-.578L113.793 15l3.103 3.535m-20.646-.829c-1.237.238-2.25.836-2.25 1.328 0 1.478 3.112 2.634 10.5 3.902 3.85.66 8.35 1.451 10 1.757l3 .557-2-2.266c-4.099-4.645-11.708-6.731-19.25-5.278m-11.823 1.773c-1.06.801-1.477 1.465-.927 1.474 1.486.024 4.026-1.761 3.398-2.388-.299-.3-1.411.112-2.471.914m58.131-.573c-1.515 2.452 1.901 5.465 13.564 11.962 8.858 4.935 10.365 3.89 4.212-2.92-5.505-6.093-16.228-11.547-17.776-9.042M75.25 26.247c-2.124.681-3.25 1.685-3.25 2.898 0 2.418.132 2.382 4.114-1.129 1.863-1.641 3.161-2.945 2.886-2.898-.275.047-1.963.555-3.75 1.129m5 3.415c-2.203.889-1.411 5.186 1.281 6.95 3.041 1.993 15.553 6.637 16.183 6.007.681-.681-2.664-5.686-6.595-9.869-3.426-3.645-6.983-4.656-10.869-3.088m46.5.418c-2.497 1.454-2.162 5.277.766 8.757 2.34 2.781 12.973 8.004 19.734 9.693 2.36.589 2.75.382 2.75-1.461 0-4.35-5.583-12.681-10.973-16.375-2.725-1.867-9.54-2.208-12.277-.614m-63.803 8.559c-1.411 3.711-.681 3.845 1.904.349 1.791-2.422 1.914-2.988.654-2.988-.855 0-2.006 1.187-2.558 2.639m2.73 5.111c-1.525 2.591-1.654 7.393-.271 10.069 1.677 3.243 9.319 9.789 10.292 8.816.901-.901-2.548-12.859-4.754-16.487-1.799-2.958-4.274-4.085-5.267-2.398m43.517 3.311c-1.818.39-3.969 1.548-4.78 2.574-1.899 2.402-1.326 10.596.896 12.818 2.705 2.705 14.678 7.832 18.55 7.943 3.228.092 3.675-.197 3.947-2.553.327-2.823-5.742-16.715-8.189-18.745-2.298-1.907-6.868-2.8-10.424-2.037m-53.735 1.006c-1.076 1.741.149 2.11 1.521.457.789-.95.865-1.524.201-1.524-.584 0-1.36.48-1.722 1.067m100.413 7.587c-.754.909-1.372 3.58-1.372 5.934 0 3.383.629 4.948 3 7.462C161.207 72.981 170.52 80 172.029 80c1.568 0 .223-10.127-2.22-16.727-1.065-2.875-3.093-6.138-4.507-7.25-3.113-2.449-7.559-2.623-9.43-.369M53.607 59.582c-1.233 3.213-.513 12.029 1.311 16.045 2.21 4.867 4.691 7.002 3.802 3.272-.314-1.319-.849-5.099-1.188-8.399-.981-9.554-1.563-12.5-2.47-12.5-.467 0-1.121.712-1.455 1.582m123.795 9.953c-.639 2.547-.044 6.01 1.419 8.249 1.438 2.2 4.179.261 4.179-2.957 0-5.824-4.417-9.999-5.598-5.292M84 70.657c-3.535 2.442-3.967 3.312-3.985 8.016-.02 5.529 3.274 9.385 11.297 13.224 8.764 4.193 10.563 4.592 11.359 2.518 1.478-3.851-4.861-20.196-8.827-22.763-3.94-2.549-7.127-2.871-9.844-.995m51.277 5.273c-1.773 1.104-3.515 3.171-3.872 4.593-.946 3.77.23 9.468 2.299 11.142 3.769 3.049 14.268 7.469 16.997 7.156 2.538-.291 2.772-.647 2.505-3.821-.493-5.879-3.289-13.679-6.069-16.93-3.427-4.008-7.64-4.768-11.86-2.14m52.076 8.721c.356 4.208.679 8.82.717 10.25.155 5.704 1.789-1.39 1.86-8.069.075-7.141-.523-9.832-2.184-9.832-.685 0-.819 2.607-.393 7.651M47.232 81c0 1.925.206 2.713.457 1.75.252-.963.252-2.537 0-3.5-.251-.963-.457-.175-.457 1.75m113.779 4.486c-1.618 1.951-1.569 7.136.087 9.132 1.805 2.175 5.116 1.275 6.869-1.868 1.377-2.471 1.377-3.029 0-5.5-1.784-3.199-5.072-4.033-6.956-1.764m15.573 3.378c-.33.534-.858 2.92-1.173 5.303-.61 4.607 3.004 16.825 5.188 17.54.713.233 1.316-2.716 1.717-8.389.511-7.248.321-9.254-1.109-11.703-1.874-3.209-3.677-4.282-4.623-2.751M64.819 91.25c-5.537 4.427-.427 15.399 10.411 22.356 3.447 2.212 6.77 3.126 6.77 1.862 0-1.41-4.364-13.243-6.048-16.397-2.535-4.747-4.016-6.512-6.636-7.908-2.692-1.433-2.593-1.435-4.497.087m-14.115 4.599c-.339 2.867-.25 6.203.198 7.415l.815 2.203.707-2.228c.389-1.225 1.407-2.928 2.263-3.784 1.409-1.408 1.407-1.67-.027-2.756-.871-.659-1.979-2.293-2.461-3.63-.758-2.101-.961-1.723-1.495 2.78m60.604 3.161c-3.448 1.389-5.654 5.509-4.919 9.186 1.127 5.632 4.087 7.698 17.072 11.918 9.885 3.213 10.492 1.849 4.691-10.531-3.175-6.774-4.47-8.506-7.401-9.897-3.906-1.853-6.126-2.012-9.443-.676M54 107.011c0 3.707 4.392 11.445 9.278 16.346 2.662 2.672 5.079 4.619 5.37 4.328.291-.291-1.37-4.051-3.692-8.357C58.141 106.689 54 102.034 54 107.011m86.893-.652c-3.533 1.752-3.83 6.981-.519 9.151 2.653 1.738 5.019 1.131 7.57-1.942 3.251-3.917-2.282-9.573-7.051-7.209m17.714 1.223c-.334.87-.607 3.177-.607 5.127 0 3.028.84 4.33 5.75 8.911 8.566 7.993 9.508 7.344 6.69-4.615-2.074-8.799-3.649-11.005-7.856-11.005-2.151 0-3.59.572-3.977 1.582M90.07 120.265c-1.337.679-2.778 2.539-3.203 4.132-1.119 4.194 3.646 8.652 12.133 11.352 8.41 2.676 13 3.459 13 2.216 0-.541-2.525-4.399-5.612-8.572-3.664-4.955-6.776-8.075-8.967-8.991-4.054-1.693-4.282-1.697-7.351-.137m49.467 6.34c-1.691 1.692-1.305 4.854.877 7.166 1.96 2.077 18.627 4.303 18.558 2.479-.049-1.272-7.345-8.917-9.656-10.116-3.135-1.627-7.91-1.397-9.779.471m-21.314.952c-1.223.856-2.223 2.174-2.223 2.928 0 2.244 2.952 4.517 5.821 4.483 5.845-.069 8.428-5.622 3.632-7.807-3.362-1.532-4.572-1.466-7.23.396M75 135.115c0 3.456 10.838 10.004 20.334 12.285 4.129.991 2.712-.633-6.534-7.488-5.447-4.039-8.896-5.912-10.887-5.912-1.602 0-2.913.502-2.913 1.115m47.282 7.045c-1.911 2.303.2 4.189 5.361 4.786 6.212.719 17.357.117 17.357-.937 0-1.333-9.024-4.05-15.525-4.676-4.515-.435-6.318-.227-7.193.827m-22.092 1.59c.481 2.496 7.289 4.599 10.071 3.11l2.119-1.134-2.301-1.863c-3.126-2.532-10.37-2.614-9.889-.113m11.36 8.184c1.143 1.123 6.003 1.531 13.45 1.127 4.769-.258 5.101-.399 2.5-1.061-4.455-1.134-17.089-1.186-15.95-.066m51.807 23.011c-2.864 1.218-5.608 5.204-4.408 6.404.574.574 2.132-.081 4.067-1.709 3.751-3.156 6.287-3.337 8.984-.64 2.408 2.408 2.535 4.322.429 6.429-.865.864-2.215 1.571-3 1.571-2.277 0-1.653 3.427.821 4.513 2.94 1.29 3.649 6.357 1.145 8.188-2.288 1.673-6.878 1.669-8.574-.007-1.814-1.793-4.653-2.774-5.247-1.813-.926 1.498 2.435 4.967 5.929 6.12 8.97 2.96 16.968-5.6 11.94-12.778-1.409-2.012-1.409-2.434 0-4.446 2.243-3.201 1.92-7.087-.8-9.642-2.662-2.501-8.081-3.553-11.286-2.19m28.864.117c-5.772 1.138-10.072 4.398-12.316 9.339-2.243 4.941-2.378 8.532-.489 13.053 1.854 4.438 5.739 6.879 10.944 6.879 10.621 0 15.104-10.89 7.08-17.202-2.976-2.34-9.204-2.863-12.581-1.055-1.864.997-1.921.909-.788-1.209 1.888-3.528 5.068-5.772 9.179-6.478 2.769-.476 3.75-1.135 3.75-2.517 0-1.03-.113-1.823-.25-1.762-.137.06-2.176.489-4.529.952m-130.125 1.203c-3.856 1.982-6.338 6.195-6.862 11.649-.582 6.064.931 10.206 4.972 13.606 2.444 2.056 4.007 2.48 9.148 2.48 6.932 0 9.686-1.377 12.728-6.367l1.911-3.133.003 4.807.004 4.808 4.25-.308 4.25-.307.305-4.75.305-4.75h4.544c3.793 0 5.023-.513 7.445-3.106l2.901-3.106v16.207l22.75-.247 22.75-.248.313-3.25.314-3.25h-7.564c-6.896 0-7.563-.176-7.563-2 0-1.795.667-2 6.5-2h6.5v-7.148l-4.75.163c-7.687.263-8.25.126-8.25-2.015 0-1.81.667-2 7-2h7v-6h-23v20h-13v-20h-4.5c-4.2 0-4.5.177-4.5 2.646v2.646l-2.452-2.646c-2.322-2.505-2.96-2.646-12-2.646H84l-.004 4.25-.003 4.25-1.953-3.201c-1.073-1.761-3.299-3.899-4.946-4.75-3.582-1.853-11.649-2.005-14.998-.284m146.753.255c-3.96 2.151-7.242 9.618-6.439 14.645 1.018 6.366 3.302 9.801 7.906 11.892 5.137 2.332 6.567 2.374 11.645.342 5.575-2.231 8.048-6.563 8.004-14.017-.041-6.72-1.36-9.685-5.532-12.436-3.532-2.328-11.673-2.55-15.584-.426M8.222 189.75L8.5 203.5l4.25.307 4.25.308V194h4.811c4.79 0 8.925-2.333 9.372-5.289.101-.666.439 2.389.75 6.789l.567 8h23v-6l-7.25-.294c-6.429-.26-7.25-.515-7.25-2.25 0-1.741.715-1.956 6.5-1.956H54v-3.575c0-3.278-.229-3.561-2.75-3.394-7.721.509-10.25.008-10.25-2.031 0-1.81.667-2 7-2h7v-6H32V180.909l-2.455-2.454C27.281 176.19 26.349 176 17.517 176H7.944l.278 13.75m201.701-8.827c-2.522 2.522-2.923 3.678-2.923 8.423 0 4.459.49 6.083 2.589 8.577 3.601 4.28 9.297 4.345 13.488.154 2.541-2.542 2.923-3.661 2.923-8.577s-.382-6.035-2.923-8.577c-2.164-2.164-3.872-2.923-6.577-2.923s-4.413.759-6.577 2.923m-143.7 1.634c-1.821 1.275-2.223 2.514-2.223 6.845 0 5.77 1.899 8.598 5.772 8.598 4.946 0 7.298-10.93 3.228-15-2.407-2.407-3.84-2.501-6.777-.443M17 184.934c0 2.259.46 3.062 1.75 3.051 4.939-.044 5.828-5.243.991-5.801-2.461-.285-2.741-.004-2.741 2.75M93 185c0 3.033 1.14 3.651 4.418 2.393 2.046-.785 2.046-4.001 0-4.786C94.14 181.349 93 181.967 93 185m92.223 4.557c-2.802 1.962-3.022 7.41-.394 9.788 2.471 2.237 8.424 2.138 10.516-.174C199.329 194.769 196.09 188 190 188c-1.405 0-3.555.701-4.777 1.557" fill="undefined" fill-rule="evenodd"/></svg>