<svg xmlns="http://www.w3.org/2000/svg" width="1240" height="1240"><path d="M0 620.001v620.001l620.25-.251 620.25-.251.251-619.75.251-619.75H0v620.001m.497.499c0 341 .114 480.649.253 310.332s.139-449.317 0-620S.497 279.5.497 620.5M756 11.5c0 1.177-1.377 1.5-6.393 1.5-4.76 0-6.54.383-6.969 1.5-.358.935-1.884 1.5-4.048 1.5-1.909 0-3.75.45-4.09 1-.34.55-1.424 1-2.409 1-.986 0-2.826 1.35-4.091 3-1.265 1.65-3.146 3-4.18 3-2.492 0-13.963 11.463-13.273 13.263.302.785-.78 2.382-2.509 3.708-1.789 1.371-3.038 3.25-3.038 4.572 0 1.233-.683 2.505-1.518 2.825-1 .384-1.434 1.674-1.274 3.782.14 1.832-.28 3.374-.982 3.608-.748.249-1.226 2.339-1.226 5.357 0 3.475-.446 5.119-1.5 5.523-1.133.435-1.5 2.268-1.5 7.5 0 5.233.367 7.065 1.5 7.5 1.043.401 1.5 2.029 1.5 5.347 0 2.748.563 5.238 1.33 5.874.785.651 1.148 2.335.888 4.11-.313 2.132.028 3.188 1.17 3.626.887.341 1.612 1.696 1.612 3.012s.567 2.393 1.259 2.393c1.333 0 4.219 3.77 4.254 5.557.031 1.567 12.03 13.438 13.62 13.475 1.846.043 4.867 2.419 4.867 3.828 0 .627 1.077 1.14 2.393 1.14 1.316 0 2.652.675 2.969 1.5.38.99 1.946 1.5 4.607 1.5 2.217 0 4.031.45 4.031 1 0 .578 3.177 1 7.531 1 5.772 0 7.666.35 8.107 1.5.745 1.941 3.979 1.941 4.724 0 .422-1.102 2.161-1.5 6.548-1.5 3.284 0 6.25-.45 6.59-1 .34-.55 2.181-1 4.09-1 2.164 0 3.69-.565 4.048-1.5.317-.825 1.653-1.5 2.969-1.5 1.46 0 2.393-.585 2.393-1.5 0-.861.902-1.5 2.117-1.5 1.164 0 3.864-1.8 5.999-4s4.552-4 5.371-4c2.223 0 5.513-3.18 5.513-5.328 0-1.036 1.125-2.769 2.5-3.851 1.375-1.081 2.508-2.721 2.517-3.644.01-.922 1.132-2.734 2.494-4.026 2.128-2.018 2.562-2.123 3.089-.75.413 1.076 1.853 1.599 4.4 1.599 2.682 0 3.983.51 4.46 1.75.642 1.667.721 1.667 1.657 0 .54-.963 2.115-1.75 3.5-1.75 2.065 0 2.403-.361 1.881-2.005-.422-1.332-.11-2.207.933-2.607 2.354-.903 1.891-3.99-.931-6.209-1.375-1.082-2.5-2.465-2.5-3.073 0-.608-1.077-1.106-2.393-1.106-1.316 0-2.652-.675-2.969-1.5-.316-.825-1.714-1.5-3.107-1.5H822V72.429c0-10.03-.314-12.886-1.552-14.124-1.026-1.026-1.348-2.485-.949-4.302.432-1.965.161-2.919-.947-3.345C817.698 50.331 817 49.135 817 48s-.675-2.322-1.5-2.638c-.825-.317-1.5-1.489-1.5-2.604 0-1.116-1.125-3.071-2.5-4.346-1.375-1.274-2.5-3.238-2.5-4.364 0-1.154-.655-2.048-1.5-2.048-.825 0-1.5-.675-1.5-1.5s-.675-1.5-1.5-1.5-1.5-.723-1.5-1.607c0-1.091-.537-1.401-1.672-.965-1.117.428-2.592-.366-4.444-2.393-1.524-1.669-3.493-3.035-4.375-3.035-.883 0-2.647-1.125-3.921-2.5-1.532-1.653-3.391-2.5-5.484-2.5-1.892 0-3.398-.604-3.742-1.5-.429-1.117-2.209-1.5-6.969-1.5-5.016 0-6.393-.323-6.393-1.5 0-1.133-1.222-1.5-5-1.5s-5 .367-5 1.5M574.22 51.414c-4.124 4.372-4.058 6.681.313 11.053L578.067 66h10.052c9.949 0 10.089-.033 13.467-3.22 2.813-2.653 3.414-3.946 3.414-7.345 0-6.678-1.59-7.435-15.609-7.435H577.44l-3.22 3.414m74.394-1.85c-.354.922-1.504 1.435-2.803 1.25-2.054-.293-2.198.065-2.121 5.291.135 9.204 1.254 9.895 16.032 9.895C669.969 66 672 65.752 672 64.5c0-.825.45-1.5 1-1.5s1.9-.9 3-2c1.556-1.556 1.667-2 .5-2-.894 0-1.5-.92-1.5-2.278 0-3.837-3.702-6.1-9.537-5.83-3.64.169-5.485-.214-6.41-1.328-1.774-2.138-9.619-2.138-10.439 0M509.638 57.5c-.316.825-1.484 1.5-2.595 1.5-5.825 0-8.221 8.403-3.635 12.75 1.962 1.859 3.503 2.25 8.876 2.25 4.857 0 6.648-.379 7.078-1.5.392-1.023 1.993-1.5 5.035-1.5 3.691 0 5.077-.581 8.032-3.368 3.77-3.556 4.988-8.632 2.071-8.632-.825 0-1.5-.675-1.5-1.5 0-1.246-1.933-1.5-11.393-1.5-9.205 0-11.504.288-11.969 1.5m-56.276 13c-.357.929-1.879 1.5-4 1.5-2.122 0-3.644.571-4 1.5-.359.934-1.883 1.5-4.04 1.5-3.402 0-6.322 1.814-6.322 3.929 0 .589-.675 1.071-1.5 1.071-.841 0-1.5.892-1.5 2.031 0 1.118.675 2.291 1.5 2.607.825.317 1.5 1.653 1.5 2.969 0 1.864.534 2.393 2.417 2.393 1.329 0 2.679.563 3 1.25.466 1 .7 1 1.166 0 .352-.753 2.551-1.25 5.532-1.25 3.475 0 5.119-.446 5.523-1.5.345-.897 1.851-1.5 3.749-1.5 4.77 0 9.613-5.498 9.613-10.914 0-3.643-.259-4.086-2.393-4.086-1.316 0-2.652-.675-2.969-1.5C460.3 69.618 458.8 69 457 69c-1.8 0-3.3.618-3.638 1.5m-67 24c-.357.929-1.879 1.5-4 1.5-2.122 0-3.644.571-4 1.5-.317.825-1.462 1.5-2.546 1.5-1.083 0-3.285 1.315-4.893 2.923-3.468 3.468-4.045 9.744-1.201 13.066 2.163 2.526 10.278 2.93 10.278.511 0-.938.948-1.5 2.531-1.5 1.393 0 2.791-.675 3.107-1.5.359-.934 1.883-1.5 4.04-1.5 3.402 0 6.322-1.814 6.322-3.929 0-.589.675-1.071 1.5-1.071 1.133 0 1.5-1.222 1.5-5s-.367-5-1.5-5c-.825 0-1.5-.675-1.5-1.5 0-1.113-1.17-1.5-4.531-1.5-3.106 0-4.713.472-5.107 1.5m485.388 18.43c-2.062 2.125-3.75 4.652-3.75 5.616 0 2.39 6.42 8.454 8.95 8.454 1.156 0 2.05.655 2.05 1.5 0 .915.933 1.5 2.393 1.5 1.316 0 2.652.675 2.969 1.5.316.825 1.714 1.5 3.107 1.5 1.392 0 2.531.45 2.531 1 0 1.255 2.478 1.293 4.764.073.955-.51 2.524-1.171 3.486-1.469 1.063-.329 1.75-1.535 1.75-3.073 0-1.732.552-2.541 1.75-2.561 1.667-.029 1.667-.079 0-1.05-.962-.561-1.758-1.785-1.767-2.72-.022-2.121-4.215-6.2-6.374-6.2-.885 0-1.609-.45-1.609-1s-1.139-1-2.531-1c-1.393 0-2.791-.675-3.107-1.5-.317-.825-1.605-1.5-2.862-1.5-1.257 0-2.545-.675-2.862-1.5-1.021-2.662-5.001-1.574-8.888 2.43m-549.483 13.82c-.265.688-1.51 1.25-2.767 1.25s-2.545.675-2.862 1.5c-.316.825-1.714 1.5-3.107 1.5-1.392 0-2.531.35-2.531.777 0 1.222-5.769 7.223-6.944 7.223-.581 0-1.056.9-1.056 2 0 1.111.667 2 1.5 2 1 0 1.5 1 1.5 3v3h6.031c4.439 0 6.184-.396 6.607-1.5.317-.825 1.653-1.5 2.969-1.5 1.46 0 2.393-.585 2.393-1.5 0-.852.898-1.5 2.079-1.5 2.427 0 10.921-8.106 10.921-10.421 0-.868-.42-1.579-.934-1.579-.513 0-1.076-1.215-1.25-2.7-.302-2.585-.567-2.703-6.192-2.75-3.817-.033-6.045.388-6.357 1.2m266.983 16.658c-1.829 1.93-2.25 3.518-2.25 8.483 0 3.406-.442 6.109-1 6.109-.592 0-1 3.631-1 8.893 0 6.982-.322 9.017-1.5 9.469-1.178.452-1.5 2.489-1.5 9.5 0 7.01-.322 9.047-1.5 9.5-1.147.44-1.5 2.323-1.5 8 0 5.951-.325 7.549-1.636 8.052-1.415.543-1.543 1.775-.947 9.118.583 7.178.449 8.582-.864 9.086-1.223.469-1.553 2.276-1.553 8.489 0 6.349-.293 7.893-1.5 7.893-1.228 0-1.5 1.722-1.5 9.5 0 8.136-.235 9.5-1.639 9.5-1.391 0-1.559.879-1.112 5.807.464 5.118.256 6.067-1.752 8-1.322 1.272-3.549 2.193-5.305 2.193-1.664 0-3.198.518-3.409 1.151-.253.76-3.001 1.082-8.083.948-6.381-.169-7.7.062-7.7 1.348 0 1.216-1.195 1.553-5.5 1.553-4.222 0-5.5.348-5.5 1.5 0 1.152-1.278 1.5-5.5 1.5-3.025 0-5.5.45-5.5 1s-1.589 1-3.531 1c-2.217 0-3.746.559-4.107 1.5-.357.929-1.879 1.5-4 1.5-2.122 0-3.644.571-4 1.5-.372.968-1.919 1.5-4.362 1.5-2.423 0-3.991.534-4.355 1.483-.407 1.061-1.428 1.31-3.592.878-2.25-.45-3.181-.19-3.645 1.017-.716 1.868-9.408 2.376-9.408.551 0-.59-.643-1.715-1.429-2.5-.785-.786-1.91-1.429-2.5-1.429-.589 0-1.071-.675-1.071-1.5s-.567-1.5-1.259-1.5c-1.326 0-4.114-3.724-4.194-5.6-.026-.605-2.41-3.416-5.297-6.245-2.887-2.83-5.25-5.842-5.25-6.694 0-.851-2.475-3.965-5.5-6.918-3.025-2.953-5.5-6.116-5.5-7.028 0-1.868-2.303-4.515-3.929-4.515-.589 0-1.071-.675-1.071-1.5s-.675-1.5-1.5-1.5c-.844 0-1.5-.894-1.5-2.043 0-1.128-2.467-4.57-5.503-7.68-3.026-3.1-5.389-6.171-5.25-6.825.139-.654-2.11-3.446-4.997-6.205-3.098-2.96-5.25-5.883-5.25-7.131 0-1.214-.639-2.116-1.5-2.116-.825 0-1.5-.675-1.5-1.5s-.415-1.5-.923-1.5c-1.53 0-7.077-6.04-7.077-7.706 0-.854-2.475-3.97-5.5-6.923-3.045-2.972-5.5-6.263-5.5-7.37 0-2.387-3.485-2.787-4.362-.501-.316.825-1.463 1.5-2.548 1.5-1.084 0-2.25.45-2.59 1-.34.55-1.4 1-2.356 1s-2.842 1.331-4.191 2.958c-1.349 1.626-3.465 2.976-4.703 3-1.238.023-2.25.492-2.25 1.042s-1.125 1-2.5 1c-1.556 0-2.5.567-2.5 1.5 0 .866-.905 1.5-2.142 1.5-1.178 0-3.421 1.339-4.984 2.975-1.704 1.782-3.447 2.742-4.35 2.396-.869-.334-1.768.101-2.123 1.025-.338.882-1.467 1.604-2.508 1.604s-2.793.9-3.893 2c-2.395 2.395-2.746 8-.5 8 .915 0 1.5.933 1.5 2.393 0 1.316.675 2.652 1.5 2.969.941.361 1.5 1.89 1.5 4.107 0 1.942.45 3.531 1 3.531s1 1.139 1 2.531c0 1.393.675 2.791 1.5 3.107.978.376 1.5 1.931 1.5 4.469 0 2.794.424 3.893 1.5 3.893.933 0 1.5.944 1.5 2.5 0 1.375.45 2.5 1 2.5s1 1.8 1 4c0 2.889.417 4 1.5 4 1.076 0 1.5 1.099 1.5 3.893 0 2.538.522 4.093 1.5 4.469.825.316 1.5 1.463 1.5 2.548 0 1.084.45 2.25 1 2.59.55.34 1 2.181 1 4.09 0 2.164.565 3.69 1.5 4.048.825.317 1.5 1.653 1.5 2.969 0 1.46.585 2.393 1.5 2.393 1.083 0 1.5 1.111 1.5 4 0 2.2.45 4 1 4s1 1.125 1 2.5c0 1.556.567 2.5 1.5 2.5 1.076 0 1.5 1.099 1.5 3.893 0 2.538.522 4.093 1.5 4.469.825.316 1.5 1.434 1.5 2.484s.598 2.406 1.33 3.013c.785.651 1.148 2.335.888 4.11-.313 2.132.028 3.188 1.17 3.626.887.341 1.612 1.696 1.612 3.012 0 1.46.585 2.393 1.5 2.393 1.078 0 1.5 1.102 1.5 3.917 0 2.154.385 4.066.856 4.25.471.183 1.093 2.487 1.382 5.119.483 4.408.258 5.061-2.839 8.25-1.85 1.905-4.039 3.464-4.863 3.464-1.987 0-45.536 43.476-45.536 45.46 0 2.187-3.632 5.54-6 5.54-1.1 0-2 .42-2 .933 0 1.821-4.108 2.279-5.9.657-.967-.874-3.136-1.59-4.822-1.59-1.801 0-3.301-.618-3.64-1.5-.316-.825-1.714-1.5-3.107-1.5-1.606 0-2.531-.56-2.531-1.531 0-1.143-.934-1.469-3.678-1.284-2.196.148-3.841-.242-4.083-.969-.223-.669-1.957-1.216-3.854-1.216-2.142 0-3.666-.568-4.023-1.5-.317-.825-1.605-1.5-2.862-1.5-1.257 0-2.566-.73-2.908-1.622-.464-1.207-1.395-1.467-3.645-1.017-2.164.432-3.185.183-3.592-.878-.313-.816-1.598-1.483-2.855-1.483s-2.545-.675-2.862-1.5c-.38-.99-1.946-1.5-4.607-1.5-2.916 0-4.031-.415-4.031-1.5 0-.933-.944-1.5-2.5-1.5-1.375 0-2.5-.45-2.5-1s-1.8-1-4-1c-2.889 0-4-.417-4-1.5 0-.915-.933-1.5-2.393-1.5-1.316 0-2.671-.725-3.012-1.612-.438-1.142-1.494-1.483-3.626-1.17-1.775.26-3.459-.103-4.11-.888-.607-.732-1.963-1.33-3.013-1.33-1.05 0-2.168-.675-2.484-1.5-.376-.978-1.931-1.5-4.469-1.5-2.829 0-3.893-.418-3.893-1.531 0-1.143-.934-1.469-3.678-1.284-2.196.148-3.841-.242-4.083-.969-.223-.669-1.493-1.216-2.822-1.216-1.482 0-2.417-.58-2.417-1.5 0-1.076-1.099-1.5-3.893-1.5-2.538 0-4.093-.522-4.469-1.5-.336-.877-1.835-1.5-3.607-1.5-2.028 0-3.031.497-3.031 1.5 0 .825-.675 1.5-1.5 1.5-.915 0-1.5.933-1.5 2.393 0 1.316-.675 2.652-1.5 2.969-.825.316-1.5 1.714-1.5 3.107 0 1.392-.45 2.531-1 2.531s-1 .809-1 1.797c0 .988-1.331 2.901-2.958 4.25-1.626 1.349-2.976 3.417-3 4.596-.023 1.179-.746 2.413-1.605 2.743-.86.33-1.286 1.049-.947 1.598.772 1.249-2.552 5.942-4.24 5.985-.687.017-1.25 1.108-1.25 2.424 0 1.316-.722 2.67-1.604 3.008-.898.345-1.357 1.259-1.042 2.078.308.805-.15 2.174-1.018 3.043-1.44 1.439-1.414 1.705.292 2.997 1.03.779 2.21 1.432 2.622 1.449.412.018.75.707.75 1.532 0 .825.675 1.5 1.5 1.5s1.5.675 1.5 1.5c0 .861.902 1.5 2.116 1.5 1.246 0 4.149 2.132 7.066 5.19 2.722 2.855 5.757 5.25 6.743 5.323.986.073 4.05 2.462 6.809 5.309 2.759 2.848 5.748 5.178 6.641 5.178 1.53 0 5.625 3.328 5.625 4.571 0 .982 2.804 3.429 3.929 3.429.589 0 1.071.675 1.071 1.5 0 .844.894 1.5 2.044 1.5 1.162 0 4.387 2.401 7.482 5.57 2.991 3.064 5.868 5.305 6.393 4.98.525-.325 3.419 1.894 6.431 4.93 3.012 3.036 6.169 5.52 7.017 5.52 1.615 0 10.633 8.576 10.633 10.112 0 .488 1.062.888 2.36.888 1.35 0 3.163 1.07 4.237 2.5 1.033 1.375 2.446 2.5 3.14 2.5.695 0 1.263.675 1.263 1.5 0 .933.944 1.5 2.5 1.5 2 0 2.5.5 2.5 2.5 0 1.556.567 2.5 1.5 2.5 1.106 0 1.5 1.155 1.5 4.393 0 2.982-.482 4.578-1.5 4.969-.941.361-1.5 1.89-1.5 4.107 0 1.942-.45 3.531-1 3.531s-1 1.752-1 3.893c0 2.538-.522 4.093-1.5 4.469-.929.356-1.5 1.878-1.5 4 0 2.121-.571 3.643-1.5 4-1.052.403-1.5 2.045-1.5 5.5 0 3.542-.439 5.092-1.562 5.524-1.245.477-1.425 1.515-.889 5.095.544 3.628.363 4.615-.937 5.114-1.172.45-1.612 1.926-1.612 5.405 0 3.332-.456 4.961-1.5 5.362-1.15.441-1.5 2.338-1.5 8.138 0 5.924-.337 7.692-1.557 8.16-.857.329-1.342 1.161-1.078 1.848.264.688-.444 2.399-1.573 3.802-1.939 2.41-2.434 2.52-8.899 1.978-5.769-.484-6.945-.316-7.476 1.069-.52 1.354-2.2 1.643-9.555 1.643-7.011 0-9.048.322-9.5 1.5-.444 1.156-2.364 1.5-8.362 1.5-6.017 0-7.918.343-8.365 1.508-.481 1.254-2.011 1.398-9.082.854-7.353-.565-8.589-.431-9.135.992-.521 1.358-2.195 1.646-9.556 1.646-7.011 0-9.048.322-9.5 1.5-.439 1.143-2.306 1.5-7.847 1.5-5.235 0-7.618.419-8.512 1.497-1.006 1.212-2.835 1.374-9.623.852-7.376-.567-8.38-.447-8.38 1.003 0 1.331-1.059 1.648-5.5 1.648H124v58h9.031c7.106 0 9.155.32 9.607 1.5.445 1.158 2.375 1.5 8.469 1.5 6.537 0 7.893.272 7.893 1.585 0 1.345 1.285 1.54 8.491 1.291 5.663-.195 8.894.109 9.7.915.76.76 4.44 1.209 9.902 1.209 6.805 0 8.818.326 9.269 1.5.44 1.147 2.323 1.5 8 1.5 5.786 0 7.555.342 8.019 1.552.484 1.259 2.237 1.515 9.311 1.359 5.791-.127 8.842.191 9.095.949.246.74 3.517 1.14 9.328 1.14 7.031 0 9.071.321 9.523 1.5.376.978 1.931 1.5 4.469 1.5 2.794 0 3.893.424 3.893 1.5 0 .825.45 1.5 1 1.5s1 .914 1 2.031c0 1.118.675 2.291 1.5 2.607 1.113.428 1.5 2.197 1.5 6.862s.387 6.434 1.5 6.862c1.118.429 1.5 2.212 1.5 7 0 4.761.385 6.572 1.486 6.994 1.138.437 1.345 1.598.885 4.956-.478 3.487-.27 4.513 1.014 5.005 1.052.404 1.615 1.815 1.615 4.045 0 2.121.571 3.643 1.5 4 1.052.403 1.5 2.045 1.5 5.5 0 3.454.448 5.096 1.5 5.5.825.316 1.5 1.463 1.5 2.548 0 1.084.45 2.25 1 2.59.55.34 1 2.181 1 4.09 0 2.164.565 3.69 1.5 4.048 1.049.403 1.5 2.039 1.5 5.438 0 4.616-.306 5.168-6.049 10.893-3.328 3.317-6.755 6.031-7.617 6.031-.863 0-3.315 1.8-5.45 4-2.135 2.2-4.615 4-5.511 4-.897 0-3.97 2.475-6.831 5.5-2.86 3.025-5.783 5.5-6.496 5.5-.712 0-3.475 2.25-6.14 5-2.664 2.75-5.572 5-6.462 5-.889 0-4.034 2.475-6.987 5.5-3.047 3.121-6.254 5.5-7.413 5.5-1.15 0-2.044.656-2.044 1.5 0 .825-.482 1.5-1.071 1.5-1.385 0-3.929 2.544-3.929 3.929 0 .589-.675 1.071-1.5 1.071s-1.5.675-1.5 1.5c0 .844-.894 1.5-2.043 1.5-1.126 0-4.559 2.456-7.646 5.469-3.081 3.008-6.012 5.216-6.515 4.905-.502-.31-3.352 1.953-6.332 5.031-3.063 3.162-6.299 5.595-7.442 5.595-3.03 0-2.687 4.306.478 6 1.584.848 2.5 2.204 2.5 3.7 0 1.3.675 2.622 1.5 2.938.825.317 1.5 1.653 1.5 2.969 0 1.316.45 2.393 1 2.393s1 1.125 1 2.5.45 2.5 1 2.5c1.565 0 5 3.828 5 5.571 0 .865.701 2.273 1.558 3.129.856.857 1.314 2.192 1.016 2.967-.297.775.127 1.665.943 1.978.816.313 1.483 1.646 1.483 2.962 0 1.316.45 2.393 1 2.393 1.736 0 5 3.917 5 6 0 2.455 3.496 2.755 4.408.378.464-1.207 1.395-1.467 3.645-1.017 2.164.432 3.185.183 3.592-.878.364-.949 1.932-1.483 4.355-1.483 2.443 0 3.99-.532 4.362-1.5.316-.825 1.503-1.5 2.638-1.5s2.322-.675 2.638-1.5c.376-.978 1.931-1.5 4.469-1.5 2.141 0 3.893-.45 3.893-1s.914-1 2.031-1c1.118 0 2.291-.675 2.607-1.5.376-.978 1.931-1.5 4.469-1.5 2.794 0 3.893-.424 3.893-1.5 0-.933.944-1.5 2.5-1.5 1.375 0 2.5-.45 2.5-1s1.8-1 4-1c2.889 0 4-.417 4-1.5 0-.938.948-1.5 2.531-1.5 1.393 0 2.791-.675 3.107-1.5.376-.978 1.931-1.5 4.469-1.5 2.141 0 3.893-.45 3.893-1s1.125-1 2.5-1c1.556 0 2.5-.567 2.5-1.5 0-1.076 1.099-1.5 3.893-1.5 2.538 0 4.093-.522 4.469-1.5.361-.941 1.89-1.5 4.107-1.5 1.942 0 3.531-.45 3.531-1s1.139-1 2.531-1c1.393 0 2.791-.675 3.107-1.5.357-.929 1.879-1.5 4-1.5 2.122 0 3.644-.571 4-1.5.317-.825 1.653-1.5 2.969-1.5 1.316 0 2.393-.45 2.393-1s1.589-1 3.531-1c2.217 0 3.746-.559 4.107-1.5.403-1.049 2.039-1.5 5.444-1.5 4.591 0 5.209.334 10.893 5.896 3.59 3.513 6.025 6.746 6.025 8 0 1.204.642 2.104 1.5 2.104.825 0 1.5.675 1.5 1.5s.482 1.5 1.071 1.5c1.385 0 3.929 2.544 3.929 3.929 0 .589.675 1.071 1.5 1.071s1.5.675 1.5 1.5.465 1.5 1.034 1.5c1.294 0 6.966 5.728 6.966 7.034 0 .532.482.966 1.071.966 1.385 0 3.929 2.544 3.929 3.929 0 .589.675 1.071 1.5 1.071s1.5.675 1.5 1.5.599 1.5 1.331 1.5 1.933 1.125 2.669 2.5 2.184 2.5 3.218 2.5c1.034 0 4.61 2.738 7.946 6.084 5.476 5.493 6.082 6.518 6.243 10.55.104 2.632-.353 4.906-1.115 5.538-.711.59-1.292 1.932-1.292 2.982 0 1.05-.675 2.168-1.5 2.484-.978.376-1.5 1.931-1.5 4.469 0 2.794-.424 3.893-1.5 3.893-.933 0-1.5.944-1.5 2.5 0 1.375-.45 2.5-1 2.5s-1 1.752-1 3.893c0 2.538-.522 4.093-1.5 4.469-.825.316-1.5 1.441-1.5 2.5 0 1.058-.675 2.183-1.5 2.5-.935.358-1.5 1.884-1.5 4.048 0 1.909-.45 3.75-1 4.09-.55.34-1 1.506-1 2.59 0 1.085-.675 2.232-1.5 2.548-.978.376-1.5 1.931-1.5 4.469 0 2.794-.424 3.893-1.5 3.893-1.083 0-1.5 1.111-1.5 4 0 2.2-.45 4-1 4s-1 1.077-1 2.393c0 1.316-.675 2.652-1.5 2.969-.929.356-1.5 1.878-1.5 4 0 2.121-.571 3.643-1.5 4-.825.316-1.5 1.714-1.5 3.107 0 1.392-.45 2.531-1 2.531s-1 1.589-1 3.531c0 2.217-.559 3.746-1.5 4.107-.825.317-1.5 1.605-1.5 2.862 0 1.257-.675 2.545-1.5 2.862-.941.361-1.5 1.89-1.5 4.107 0 1.942-.45 3.531-1 3.531s-1 1.077-1 2.393c0 1.316-.675 2.652-1.5 2.969-.929.356-1.5 1.878-1.5 4 0 2.183-.567 3.641-1.564 4.024-1.077.413-1.466 1.614-1.25 3.857.262 2.716.771 3.31 3.064 3.573 1.512.174 2.75.737 2.75 1.25 0 .514 1.125.934 2.5.934 1.556 0 2.5.567 2.5 1.5 0 .825.675 1.5 1.5 1.5s1.5.675 1.5 1.5c0 .933.944 1.5 2.5 1.5 1.375 0 2.5.45 2.5 1s1.077 1 2.393 1c1.316 0 2.652.675 2.969 1.5.316.825 1.714 1.5 3.107 1.5 1.392 0 2.531.482 2.531 1.071 0 1.775 2.72 3.929 4.96 3.929 1.157 0 2.362.675 2.678 1.5.317.825 1.449 1.5 2.517 1.5 1.067 0 3.028 1.173 4.357 2.607 2.173 2.345 2.571 2.453 3.952 1.072.845-.845 1.536-2.018 1.536-2.608 0-.589.675-1.071 1.5-1.071s1.5-.675 1.5-1.5.675-1.5 1.5-1.5c.861 0 1.5-.902 1.5-2.116 0-1.236 2.078-4.097 5-6.884 2.75-2.623 5-5.469 5-6.326 0-1.714 8.389-10.674 9.994-10.674.553 0 1.006-1.35 1.006-3s.49-3 1.089-3c1.607 0 9.911-8.834 9.911-10.543 0-.807 2.363-3.783 5.25-6.614s5.131-5.697 4.985-6.368c-.145-.671 2.211-3.64 5.236-6.597 3.025-2.958 5.506-6.027 5.514-6.82.008-.793 1.815-3.12 4.015-5.172 2.2-2.051 4-4.215 4-4.808s.675-1.078 1.5-1.078 1.5-.885 1.5-1.967c0-1.105 3.261-5.271 7.436-9.5 7.112-7.206 7.635-7.533 12.031-7.533 3.163 0 4.775.468 5.171 1.5.376.978 1.931 1.5 4.469 1.5 2.794 0 3.893.424 3.893 1.5 0 1.083 1.111 1.5 4 1.5 2.2 0 4 .45 4 1s1.8 1 4 1c2.889 0 4 .417 4 1.5 0 1.152 1.278 1.5 5.5 1.5 4.222 0 5.5.348 5.5 1.5 0 1.131 1.216 1.5 4.941 1.5 2.718 0 5.219.45 5.559 1 .34.55 2.841 1 5.559 1 3.725 0 4.941.369 4.941 1.5 0 1.201 1.509 1.5 7.585 1.5 7.425 0 7.652.075 10.711 3.53 2.562 2.893 3.073 4.245 2.838 7.502-.209 2.882.145 4.138 1.289 4.577 1.273.488 1.577 2.326 1.577 9.529 0 7.011.322 9.048 1.5 9.5 1.176.451 1.5 2.473 1.5 9.347 0 6.565.376 9.082 1.496 10.012 1.181.98 1.364 2.656.871 7.966-.527 5.665-.368 6.822 1.004 7.349 1.339.514 1.629 2.233 1.629 9.657 0 7.361.277 9.031 1.5 9.031 1.227 0 1.5 1.71 1.5 9.393 0 7.427.314 9.514 1.5 9.969 1.15.441 1.5 2.335 1.5 8.107 0 4.354.422 7.531 1 7.531.583 0 1 3.333 1 8v8h58v-7.531c0-5.772.35-7.666 1.5-8.107 1.158-.445 1.5-2.375 1.5-8.469 0-6.349.293-7.893 1.5-7.893 1.228 0 1.5-1.722 1.5-9.5 0-5.667.404-9.5 1-9.5.592 0 1-3.631 1-8.893 0-6.982.322-9.017 1.5-9.469 1.147-.44 1.5-2.323 1.5-8s.353-7.559 1.5-8c1.178-.452 1.5-2.489 1.5-9.5 0-7.352.289-9.035 1.641-9.554 1.396-.536 1.545-1.677.991-7.635-.534-5.739-.378-7.109.858-7.584 1.107-.424 1.51-2.132 1.51-6.401 0-5.236.339-6.181 3.368-9.393 3.151-3.34 3.764-3.571 9.5-3.571 4.784 0 6.132-.33 6.132-1.5 0-1.179 1.389-1.5 6.5-1.5 3.667 0 6.5-.436 6.5-1 0-.55 2.264-1 5.031-1 3.55 0 5.201-.442 5.607-1.5.404-1.052 2.046-1.5 5.5-1.5 3.455 0 5.097-.448 5.5-1.5.376-.978 1.931-1.5 4.469-1.5 2.141 0 3.893-.45 3.893-1s1.589-1 3.531-1c2.217 0 3.746-.559 4.107-1.5.376-.978 1.931-1.5 4.469-1.5 2.794 0 3.893-.424 3.893-1.5 0-1.152 1.278-1.5 5.5-1.5 4.222 0 5.5.348 5.5 1.5 0 .825.675 1.5 1.5 1.5s1.5.675 1.5 1.5.453 1.5 1.006 1.5c1.59 0 9.994 8.952 9.994 10.646 0 .84 2.484 3.992 5.52 7.004 3.036 3.012 5.247 5.918 4.913 6.459-.334.54 1.907 3.36 4.98 6.266 3.444 3.257 5.587 6.116 5.587 7.454 0 1.194.4 2.171.888 2.171 1.57 0 10.112 9.036 10.112 10.696 0 .882 2.524 4.01 5.609 6.95 3.236 3.085 5.388 5.92 5.087 6.703-.528 1.378 2.508 4.651 4.315 4.651.544 0 .989.675.989 1.5s.513 1.5 1.14 1.5c1.681 0 3.792 3.171 3.828 5.75.018 1.237.47 2.25 1.006 2.25 1.529 0 10.026 8.889 10.026 10.488 0 .789 2.037 3.531 4.526 6.092l4.525 4.657 2.427-2.619c1.335-1.44 3.348-2.618 4.474-2.618 1.154 0 2.048-.655 2.048-1.5 0-.865.904-1.5 2.135-1.5 1.175 0 3.178-1.125 4.453-2.5 1.274-1.375 3.19-2.5 4.257-2.5 1.068 0 2.2-.675 2.517-1.5.316-.825 1.714-1.5 3.107-1.5 1.392 0 2.531-.45 2.531-1s.809-1 1.797-1c.988 0 2.901-1.331 4.25-2.958 1.349-1.626 3.466-2.976 4.703-3 1.237-.023 2.25-.492 2.25-1.042s1.125-1 2.5-1c2.182 0 2.5-.437 2.5-3.441 0-1.893-.45-3.719-1-4.059-.55-.34-1-2.181-1-4.09 0-2.164-.565-3.69-1.5-4.048-.825-.317-1.5-1.653-1.5-2.969 0-1.46-.585-2.393-1.5-2.393-1.083 0-1.5-1.111-1.5-4 0-2.2-.45-4-1-4s-1-1.125-1-2.5c0-1.556-.567-2.5-1.5-2.5-1.076 0-1.5-1.099-1.5-3.893 0-2.538-.522-4.093-1.5-4.469-.825-.316-1.5-1.714-1.5-3.107 0-1.392-.45-2.531-1-2.531s-1-1.589-1-3.531c0-2.217-.559-3.746-1.5-4.107-.825-.317-1.5-1.605-1.5-2.862 0-1.257-.675-2.545-1.5-2.862-.941-.361-1.5-1.89-1.5-4.107 0-1.942-.45-3.531-1-3.531s-1-1.8-1-4c0-2.889-.417-4-1.5-4-.938 0-1.5-.948-1.5-2.531 0-1.393-.675-2.791-1.5-3.107-.918-.353-1.5-1.869-1.5-3.91 0-1.834-.45-3.612-1-3.952-.55-.34-1-1.506-1-2.59 0-1.085-.675-2.232-1.5-2.548-.978-.376-1.5-1.931-1.5-4.469 0-2.794-.424-3.893-1.5-3.893-.92 0-1.5-.935-1.5-2.417 0-1.329-.547-2.599-1.216-2.822-.727-.242-1.117-1.887-.969-4.083.185-2.744-.141-3.678-1.284-3.678-.971 0-1.531-.925-1.531-2.531 0-1.393-.675-2.791-1.5-3.107-1.046-.402-1.5-2.033-1.5-5.389 0-4.556.324-5.137 6.08-10.893 3.344-3.344 6.736-6.08 7.538-6.08 1.906 0 34.382-32.541 34.382-34.451 0-.805 2.753-4.183 6.118-7.507 5.957-5.883 6.259-6.042 11.5-6.042 4.117 0 5.382.352 5.382 1.5 0 1.083 1.111 1.5 4 1.5 2.2 0 4 .45 4 1s1.125 1 2.5 1c1.556 0 2.5.567 2.5 1.5 0 1.076 1.099 1.5 3.893 1.5 2.538 0 4.093.522 4.469 1.5.316.825 1.489 1.5 2.607 1.5 1.117 0 2.031.45 2.031 1s1.752 1 3.893 1c2.538 0 4.093.522 4.469 1.5.362.945 1.894 1.5 4.138 1.5 2.244 0 3.776.555 4.138 1.5.317.825 1.653 1.5 2.969 1.5 1.316 0 2.393.45 2.393 1s1.589 1 3.531 1c2.217 0 3.746.559 4.107 1.5.317.825 1.605 1.5 2.862 1.5 1.257 0 2.545.675 2.862 1.5.361.941 1.89 1.5 4.107 1.5 1.942 0 3.531.45 3.531 1s1.139 1 2.531 1c1.393 0 2.791.675 3.107 1.5.376.978 1.931 1.5 4.469 1.5 2.794 0 3.893.424 3.893 1.5 0 .933.944 1.5 2.5 1.5 1.375 0 2.5.45 2.5 1s1.8 1 4 1c2.889 0 4 .417 4 1.5 0 1.076 1.099 1.5 3.893 1.5 2.538 0 4.093.522 4.469 1.5.316.825 1.503 1.5 2.638 1.5s2.331.698 2.658 1.552c.423 1.102 1.381 1.379 3.309.955 1.814-.398 3.14-.083 3.996.949 1.895 2.283 5.037 1.969 5.037-.504 0-1.126 1.125-3.09 2.5-4.364 1.375-1.275 2.5-3.278 2.5-4.453 0-1.231.635-2.135 1.5-2.135 1 0 1.5-1 1.5-3s.5-3 1.5-3c.845 0 1.5-.894 1.5-2.048 0-1.126 1.125-3.09 2.5-4.364 1.375-1.275 2.5-3.278 2.5-4.453 0-1.231.635-2.135 1.5-2.135.915 0 1.5-.933 1.5-2.393 0-1.316.667-2.649 1.483-2.962.816-.313 1.232-1.225.924-2.026-.324-.846.731-2.689 2.517-4.396 3.635-3.474 4.035-6.223.905-6.223-1.334 0-4.175-2.12-7.371-5.5-2.861-3.025-5.986-5.5-6.945-5.5-.959 0-3.89-2.25-6.513-5-2.623-2.75-5.496-5-6.385-5-.889 0-4.033-2.475-6.986-5.5-3.187-3.264-6.236-5.5-7.499-5.5-1.172 0-2.13-.482-2.13-1.071 0-1.385-2.544-3.929-3.929-3.929-.589 0-1.071-.675-1.071-1.5s-.675-1.5-1.5-1.5-1.5-.675-1.5-1.5c0-.861-.902-1.5-2.116-1.5-1.248 0-4.171-2.152-7.131-5.25-2.759-2.887-5.542-5.138-6.185-5.002-.643.136-3.042-1.551-5.33-3.75-2.288-2.199-4.775-3.998-5.526-3.998-.751 0-3.654-2.475-6.45-5.5-2.796-3.025-5.821-5.5-6.722-5.5-.901 0-4.316-2.686-7.589-5.969-5.67-5.687-5.951-6.205-5.951-10.941 0-2.735.45-5.25 1-5.59.55-.34 1-2.118 1-3.952 0-2.041.582-3.557 1.5-3.91.825-.316 1.5-1.714 1.5-3.107 0-1.583.562-2.531 1.5-2.531 1.131 0 1.5-1.216 1.5-4.941 0-2.718.45-5.219 1-5.559.55-.34 1-2.118 1-3.952 0-2.041.582-3.557 1.5-3.91 1.052-.403 1.5-2.045 1.5-5.5 0-3.454.448-5.096 1.5-5.5 1.121-.43 1.5-2.223 1.5-7.107 0-5.369.29-6.531 1.629-6.531 1.4 0 1.534-.844.949-6.012-.558-4.935-.402-6.118.871-6.607.853-.327 1.551-1.447 1.551-2.488 0-3.416 3.586-5.893 8.531-5.893 3.106 0 4.713-.472 5.107-1.5.438-1.141 2.298-1.5 7.769-1.5 4.29 0 7.681-.488 8.402-1.209.806-.806 4.037-1.11 9.7-.915 7.206.249 8.491.054 8.491-1.291 0-1.335 1.496-1.585 9.5-1.585 7.778 0 9.5-.272 9.5-1.5 0-1.207 1.546-1.5 7.917-1.5 5.038 0 8.055-.415 8.296-1.14.253-.758 3.304-1.076 9.095-.949 7.074.156 8.827-.1 9.311-1.359.468-1.221 2.278-1.552 8.488-1.552 6.349 0 7.893-.293 7.893-1.5 0-1.228 1.724-1.5 9.515-1.5h9.516l-.266-28.75-.265-28.75-4.935-.312c-3.05-.193-5.377-.917-6.091-1.893-.97-1.326-2.474-1.466-9.32-.869-6.929.605-8.255.475-8.766-.857-.472-1.23-2.204-1.569-8.026-1.569-5.677 0-7.56-.353-8-1.5-.453-1.178-2.49-1.5-9.5-1.5-7.339 0-9.036-.291-9.552-1.635-.539-1.405-1.789-1.546-8.849-1.004-6.637.51-8.461.344-9.464-.864-.894-1.078-3.277-1.497-8.512-1.497-5.541 0-7.408-.357-7.847-1.5-.452-1.178-2.489-1.5-9.5-1.5-7.333 0-9.036-.291-9.551-1.633-.523-1.363-1.771-1.551-7.561-1.137-6.187.443-7.155.262-8.98-1.681-1.125-1.198-2.046-2.881-2.046-3.741 0-.86-.673-2.122-1.496-2.805-1.186-.984-1.364-2.661-.858-8.099.54-5.814.387-6.954-1.005-7.488-1.212-.465-1.641-1.909-1.641-5.523 0-3.683-.371-4.893-1.5-4.893-1.152 0-1.5-1.278-1.5-5.5 0-4.222-.348-5.5-1.5-5.5-1.152 0-1.5-1.278-1.5-5.5 0-3.025-.45-5.5-1-5.5s-1-1.589-1-3.531c0-2.217-.559-3.746-1.5-4.107-.978-.376-1.5-1.931-1.5-4.469 0-2.794-.424-3.893-1.5-3.893-1.083 0-1.5-1.111-1.5-4 0-2.2-.45-4-1-4s-1-1.832-1-4.071c0-3.928 1.702-6.929 3.929-6.929.589 0 1.071-.675 1.071-1.5s.675-1.5 1.5-1.5 1.5-.465 1.5-1.034c0-1.615 5.887-6.966 7.664-6.966.877 0 4.012-2.475 6.965-5.5 2.953-3.025 6.097-5.5 6.986-5.5.889 0 3.87-2.362 6.625-5.25 3.22-3.375 5.679-5.138 6.884-4.937 1.168.195 1.876-.277 1.876-1.25 0-.86.675-1.563 1.5-1.563s1.5-.415 1.5-.923c0-1.53 6.04-7.077 7.706-7.077.854 0 3.97-2.475 6.923-5.5s6.103-5.5 6.999-5.5c.896 0 4.023-2.532 6.949-5.627 3.545-3.748 5.839-5.427 6.872-5.031.967.371 1.551.043 1.551-.873 0-.808.675-1.469 1.5-1.469s1.5-.475 1.5-1.056c0-1.485 6.157-6.944 7.831-6.944.762 0 3.579-2.205 6.259-4.9 3.63-3.649 4.496-5.045 3.392-5.468-.815-.313-1.482-1.457-1.482-2.542 0-1.084-.45-2.25-1-2.59-.55-.34-1-1.4-1-2.356s-1.331-2.842-2.958-4.191c-1.626-1.349-2.976-3.417-3-4.596-.023-1.179-.738-2.41-1.589-2.737-.851-.326-1.413-1.226-1.25-2 .163-.773-.94-2.558-2.453-3.965-1.513-1.408-2.75-3.433-2.75-4.5 0-1.068-.675-2.2-1.5-2.517-.825-.316-1.5-1.714-1.5-3.107 0-1.392-.45-2.531-1-2.531s-1-1.125-1-2.5c0-1.47-.574-2.5-1.393-2.5-.766 0-1.652-.675-1.969-1.5-.78-2.033-6.638-2.033-6.638 0 0 1.076-1.099 1.5-3.893 1.5-2.538 0-4.093.522-4.469 1.5-.361.941-1.89 1.5-4.107 1.5-1.942 0-3.531.45-3.531 1s-1.139 1-2.531 1c-1.393 0-2.791.675-3.107 1.5-.357.929-1.879 1.5-4 1.5-2.122 0-3.644.571-4 1.5-.317.825-1.653 1.5-2.969 1.5-1.316 0-2.393.45-2.393 1s-1.589 1-3.531 1c-2.217 0-3.746.559-4.107 1.5-.317.825-1.605 1.5-2.862 1.5-1.257 0-2.545.675-2.862 1.5-.361.941-1.89 1.5-4.107 1.5-1.942 0-3.531.45-3.531 1s-1.139 1-2.531 1c-1.393 0-2.791.675-3.107 1.5-.357.929-1.879 1.5-4 1.5-2.122 0-3.644.571-4 1.5-.317.825-1.46 1.5-2.54 1.5-1.081 0-2.64.675-3.466 1.501-.94.94-2.404 1.274-3.919.894-1.697-.426-2.602-.128-3.035.999-.339.883-1.707 1.606-3.04 1.606-1.334 0-2.684.675-3 1.5-.35.91-1.862 1.5-3.847 1.5-1.798 0-3.814.656-4.48 1.458-.796.959-2.199 1.259-4.107.878-2.121-.425-3.064-.146-3.52 1.042-.342.892-1.699 1.622-3.015 1.622-1.46 0-2.393.585-2.393 1.5 0 1.076-1.099 1.5-3.893 1.5-2.538 0-4.093.522-4.469 1.5-.726 1.893-4.278 1.957-5.338.096-.44-.772-1.925-1.559-3.3-1.75-1.737-.24-2.511-.979-2.535-2.419-.034-2.078-5.685-8.427-7.499-8.427-.532 0-.966-.482-.966-1.071 0-1.385-2.544-3.929-3.929-3.929-.589 0-1.071-.675-1.071-1.5s-.599-1.5-1.331-1.5-1.933-1.125-2.669-2.5-1.937-2.5-2.669-2.5-1.331-.675-1.331-1.5-.415-1.5-.923-1.5c-1.201 0-7.077-5.876-7.077-7.077 0-.508-.675-.923-1.5-.923s-1.5-.599-1.5-1.331-1.125-1.933-2.5-2.669-2.5-1.937-2.5-2.669-.675-1.331-1.5-1.331-1.5-.482-1.5-1.071c0-.59-.643-1.715-1.429-2.5-.785-.786-1.91-1.429-2.5-1.429-.589 0-1.071-.675-1.071-1.5 0-.894-.92-1.5-2.278-1.5-2.684 0-5.722-3.191-5.722-6.011 0-1.101-.67-1.989-1.5-1.989-1.085 0-1.5-1.115-1.5-4.031 0-2.661.51-4.227 1.5-4.607.968-.372 1.5-1.919 1.5-4.362s.532-3.99 1.5-4.362c.825-.316 1.5-1.489 1.5-2.607 0-1.117.45-2.031 1-2.031s1-1.752 1-3.893c0-2.538.522-4.093 1.5-4.469.825-.316 1.5-1.714 1.5-3.107 0-1.606.56-2.531 1.531-2.531 1.143 0 1.469-.934 1.284-3.678-.148-2.196.242-3.841.969-4.083.669-.223 1.216-1.493 1.216-2.822 0-1.482.58-2.417 1.5-2.417 1.076 0 1.5-1.099 1.5-3.893 0-2.538.522-4.093 1.5-4.469.825-.316 1.5-1.489 1.5-2.607 0-1.117.45-2.031 1-2.031s1-1.752 1-3.893c0-2.538.522-4.093 1.5-4.469.825-.316 1.5-1.714 1.5-3.107 0-1.583.562-2.531 1.5-2.531 1.083 0 1.5-1.111 1.5-4 0-2.2.45-4 1-4s1-1.589 1-3.531c0-2.217.559-3.746 1.5-4.107.825-.317 1.5-1.605 1.5-2.862 0-1.257.675-2.545 1.5-2.862.941-.361 1.5-1.89 1.5-4.107 0-1.942.45-3.531 1-3.531s1-1.139 1-2.531c0-1.393.675-2.791 1.5-3.107.978-.376 1.5-1.931 1.5-4.469 0-2.794.424-3.893 1.5-3.893.933 0 1.5-.944 1.5-2.5 0-1.375.45-2.5 1-2.5 1.653 0 1.126-5.83-.722-7.989-.947-1.106-2.747-2.011-4-2.011-1.426 0-2.278-.601-2.278-1.607 0-1.091-.537-1.401-1.672-.965-1.117.428-2.592-.366-4.444-2.393-1.524-1.669-3.648-3.035-4.721-3.035-1.072 0-2.208-.675-2.525-1.5-.316-.825-1.463-1.5-2.548-1.5-1.084 0-2.25-.45-2.59-1-.34-.55-1.424-1-2.409-1-.986 0-2.826-1.35-4.091-3-1.403-1.83-3.216-3-4.65-3-1.292 0-2.35-.45-2.35-1s-1.125-1-2.5-1c-1.556 0-2.5-.567-2.5-1.5 0-2.102-3.938-1.889-4.622.25-1.231 3.853-2.784 6.25-4.047 6.25-.732 0-1.331.675-1.331 1.5s-.482 1.5-1.071 1.5c-1.626 0-3.929 2.647-3.929 4.515 0 .912-2.475 4.075-5.5 7.028-3.025 2.953-5.5 6.097-5.5 6.987 0 .889-1.8 3.232-4 5.207-2.2 1.975-4.021 4.53-4.046 5.677-.027 1.212-1.683 3.343-3.954 5.086-2.149 1.65-3.928 3.563-3.954 4.25-.025.688-.721 1.25-1.546 1.25-.837 0-1.5.89-1.5 2.013 0 1.107-2.34 4.341-5.199 7.185-2.86 2.845-5.255 5.925-5.323 6.846-.067.92-2.453 3.931-5.3 6.69-2.848 2.759-5.178 5.748-5.178 6.641 0 1.53-3.328 5.625-4.571 5.625-.982 0-3.429 2.804-3.429 3.929 0 .589-.675 1.071-1.5 1.071-.862 0-1.5.902-1.5 2.122 0 1.281-2.397 4.453-6.044 8-4.974 4.837-6.648 5.878-9.451 5.878-2.118 0-3.753-.621-4.324-1.642-.624-1.114-1.762-1.48-3.544-1.14-1.548.297-3.087-.055-3.753-.858-.621-.748-2.663-1.36-4.538-1.36-2.108 0-3.628-.573-3.984-1.5-.376-.978-1.931-1.5-4.469-1.5-2.794 0-3.893-.424-3.893-1.5 0-1.083-1.111-1.5-4-1.5-2.2 0-4-.45-4-1s-2.202-1-4.893-1c-3.427 0-5.065-.449-5.469-1.5-.403-1.052-2.045-1.5-5.5-1.5-3.548 0-5.092-.438-5.525-1.567-.482-1.255-2.04-1.521-7.802-1.334-4.781.155-7.331-.158-7.589-.933-.214-.641-1.926-1.166-3.805-1.166-5.231 0-7.417-2.821-7.417-9.571 0-3.646-.524-6.096-1.516-7.088-1.221-1.221-1.388-3.052-.858-9.405.565-6.781.427-7.978-.984-8.52-1.331-.511-1.642-2.126-1.642-8.523 0-6.349-.293-7.893-1.5-7.893-1.228 0-1.5-1.722-1.5-9.5 0-7.778-.272-9.5-1.5-9.5-1.208 0-1.5-1.556-1.5-8 0-4.667-.417-8-1-8-.593 0-1-3.677-1-9.031 0-7.106-.32-9.155-1.5-9.607-1.176-.452-1.5-2.475-1.5-9.362 0-6.887-.324-8.91-1.5-9.362-1.103-.423-1.5-2.167-1.5-6.595 0-10.349.861-10.046-28.472-10.026l-25.028.018-2.25 2.373m344 4.046c-1.788 1.856-3.25 4.388-3.25 5.626 0 2.621 11.607 14.59 13.697 14.123.731-.163 1.597.399 1.923 1.25.327.851 1.685 1.547 3.018 1.547 1.334 0 2.684.675 3 1.5.317.825 1.428 1.5 2.469 1.5s1.893-.675 1.893-1.5.513-1.5 1.14-1.5c1.821 0 3.794-3.258 3.828-6.321.032-2.843-1.914-5.679-3.897-5.679-.589 0-1.071-.45-1.071-1 0-1.554-3.823-5-5.548-5-.851 0-2.59-1.125-3.864-2.5-1.275-1.375-3.23-2.5-4.346-2.5-1.115 0-2.287-.675-2.604-1.5-.892-2.325-2.842-1.728-6.388 1.954M265.638 164.5c-.316.825-1.521 1.5-2.678 1.5-1.939 0-4.96 2.088-4.96 3.429 0 1.188-4.062 4.571-5.489 4.571-.818 0-2.393.775-3.5 1.722-4.253 3.642-1.419 13.278 3.906 13.278 1.054 0 2.179.563 2.5 1.25.466 1 .7 1 1.166 0 .321-.687 1.446-1.25 2.5-1.25s3.717-1.8 5.917-4c2.2-2.2 4.675-4 5.5-4 2.119 0 5.5-3.637 5.5-5.917 0-1.054.563-2.179 1.25-2.5 1-.466 1-.7 0-1.166-.687-.321-1.25-1.446-1.25-2.5 0-4.509-8.875-8.292-10.362-4.417m723.612 25.971c-1.788 1.785-3.25 4.222-3.25 5.415 0 1.396 3.193 5.361 8.973 11.141 8.326 8.326 9.263 8.973 13 8.973 2.913 0 4.027-.415 4.027-1.5 0-.825.675-1.5 1.5-1.5 1.133 0 1.5-1.222 1.5-5 0-2.75-.415-5-.923-5-1.201 0-7.077-5.876-7.077-7.077 0-.508-.675-.923-1.5-.923s-1.5-.482-1.5-1.071c0-1.775-2.72-3.929-4.96-3.929-1.157 0-2.362-.675-2.678-1.5-.892-2.325-3.549-1.589-7.112 1.971M212.362 209.5c-.317.825-1.653 1.5-2.969 1.5-1.46 0-2.393.585-2.393 1.5 0 .825-.482 1.5-1.071 1.5-.59 0-1.715.643-2.5 1.429-.786.785-1.429 1.91-1.429 2.5 0 .589-.675 1.071-1.5 1.071s-1.5.675-1.5 1.5-.675 1.5-1.5 1.5c-.915 0-1.5.933-1.5 2.393 0 1.316-.675 2.652-1.5 2.969-.825.316-1.5 1.164-1.5 1.884 0 1.459 3.474 4.754 5.011 4.754.544 0 .989.675.989 1.5 0 1.133 1.222 1.5 5 1.5s5-.367 5-1.5c0-.825.482-1.5 1.071-1.5 1.385 0 3.929-2.544 3.929-3.929 0-.589.675-1.071 1.5-1.071s1.5-.675 1.5-1.5.482-1.5 1.071-1.5c1.749 0 3.929-2.707 3.929-4.879 0-1.112.787-2.464 1.75-3.004 1.667-.936 1.667-1.015 0-1.657-.963-.371-1.75-1.521-1.75-2.556 0-4.596-8.138-8.315-9.638-4.404m826.388 30.393c-1.054 1.069-1.75 3.3-1.75 5.612 0 3.353.693 4.491 5.5 9.037 3.315 3.135 5.5 6.047 5.5 7.33 0 1.578.619 2.128 2.393 2.128 1.316 0 2.625.604 2.908 1.343.33.86 2.076 1.309 4.857 1.25 3.743-.08 4.387-.412 4.67-2.404.18-1.271.967-2.557 1.75-2.857 1.879-.721 1.825-3.963-.078-4.694-.825-.316-1.5-1.521-1.5-2.678 0-2.24-2.154-4.96-3.929-4.96-.589 0-1.071-.675-1.071-1.5s-.675-1.5-1.5-1.5-1.5-.415-1.5-.923-1.385-2.308-3.077-4c-2.485-2.485-3.879-3.066-7.25-3.018-2.608.038-4.829.725-5.923 1.834M167.032 260.25c-.02 1.096-.81 1.75-2.114 1.75-2.288 0-11.899 8.961-11.95 11.142-.043 1.839-2.422 4.858-3.828 4.858-.701 0-1.14 1.925-1.14 5 0 3.778.367 5 1.5 5 .825 0 1.5.675 1.5 1.5 0 1.086 1.117 1.5 4.049 1.5 3.616 0 4.687-.639 10-5.969 3.273-3.283 5.951-6.835 5.951-7.893 0-1.058.675-2.183 1.5-2.5.825-.316 1.5-1.714 1.5-3.107 0-1.732.553-2.541 1.75-2.563 1.667-.03 1.667-.095 0-1.36-.963-.731-1.75-2.291-1.75-3.468 0-1.52-.62-2.14-2.14-2.14-1.177 0-2.737-.788-3.468-1.75-1.265-1.667-1.33-1.667-1.36 0m921.33 32.25c-.317.825-1.653 1.5-2.969 1.5-1.857 0-2.393.536-2.393 2.393 0 1.356-.759 2.685-1.75 3.067-1.667.642-1.667.721 0 1.657.963.54 1.75 1.833 1.75 2.874 0 1.04.45 2.169 1 2.509.55.34 1 1.353 1 2.251 0 .898 1.878 3.384 4.173 5.524 2.296 2.141 4.244 4.867 4.33 6.058.139 1.936.813 2.199 6.326 2.465l6.171.297v-3.047c0-2.043.495-3.048 1.5-3.048.833 0 1.5-.889 1.5-2s-.667-2-1.5-2c-.91 0-1.5-.929-1.5-2.36 0-1.35-1.07-3.163-2.5-4.237-1.375-1.033-2.5-2.692-2.5-3.688 0-1.931-9.173-11.715-10.984-11.715-.593 0-1.338.675-1.654 1.5M119.25 321.333c-1.787 1.798-3.25 4.047-3.25 4.999s-.675 1.99-1.5 2.306c-.825.317-1.5 1.449-1.5 2.517 0 1.067-1.125 2.983-2.5 4.257-1.471 1.363-2.5 3.423-2.5 5.002 0 3.295 5.787 9.586 8.818 9.586 2.426 0 9.182-6.314 9.182-8.581 0-.833 1.125-2.557 2.5-3.831 1.375-1.275 2.5-3.23 2.5-4.346 0-1.115.675-2.287 1.5-2.604 2.31-.886 1.967-8.171-.5-10.638-3.22-3.22-8.804-2.637-12.75 1.333M1123 354.5c0 .825-.445 1.5-.989 1.5-1.537 0-5.011 3.295-5.011 4.754 0 .72.675 1.568 1.5 1.884.825.317 1.5 1.653 1.5 2.969 0 1.46.585 2.393 1.5 2.393.938 0 1.5.948 1.5 2.531 0 1.393.675 2.791 1.5 3.107.825.317 1.5 1.462 1.5 2.546 0 3.082 5.354 7.816 8.84 7.816 1.646 0 3.162-.507 3.369-1.127.206-.619 1.481-1.182 2.833-1.25 2.202-.11 2.49-.618 2.763-4.873.241-3.761-.019-4.75-1.25-4.75-.997 0-1.555-.908-1.555-2.531 0-1.393-.675-2.791-1.5-3.107-.825-.317-1.5-1.653-1.5-2.969 0-1.316-.45-2.393-1-2.393s-1-1.125-1-2.5c0-1.556-.567-2.5-1.5-2.5-.825 0-1.5-.675-1.5-1.5 0-1.133-1.222-1.5-5-1.5s-5 .367-5 1.5m-541.607 12.25c-.78.78-4.098 1.25-8.822 1.25-6.063 0-7.571.299-7.571 1.5 0 1.177-1.377 1.5-6.393 1.5-4.984 0-6.531.359-7.018 1.628-.494 1.288-1.577 1.521-5.182 1.114-3.328-.375-4.701-.139-5.089.872-.327.853-2.03 1.386-4.425 1.386-2.794 0-3.893.424-3.893 1.5s-1.099 1.5-3.893 1.5c-2.658 0-4.089.511-4.512 1.612-.442 1.154-1.494 1.483-3.699 1.159-1.997-.293-3.262.02-3.596.889-.283.737-1.543 1.34-2.8 1.34s-2.545.675-2.862 1.5c-.316.825-1.714 1.5-3.107 1.5-1.583 0-2.531.562-2.531 1.5 0 .933-.944 1.5-2.5 1.5-1.375 0-2.5.45-2.5 1s-1.139 1-2.531 1c-1.393 0-2.791.675-3.107 1.5-.376.978-1.931 1.5-4.469 1.5-2.141 0-3.893.482-3.893 1.071 0 1.775-2.72 3.929-4.96 3.929-1.157 0-2.362.675-2.678 1.5-.317.825-1.449 1.5-2.517 1.5-1.067 0-2.983 1.125-4.257 2.5-1.275 1.375-3.278 2.5-4.453 2.5-1.231 0-2.135.635-2.135 1.5 0 .825-.675 1.5-1.5 1.5s-1.5.675-1.5 1.5c0 .886-.921 1.504-2.25 1.51-1.362.006-3.631 1.58-5.75 3.99-1.925 2.189-4.31 3.985-5.3 3.99-.99.006-4.599 2.935-8.019 6.51-3.436 3.591-7.105 6.521-8.2 6.546-1.089.026-3.331 1.805-4.981 3.954s-3.562 3.928-4.25 3.954c-.687.025-1.25.721-1.25 1.546 0 .825-.415 1.5-.923 1.5-1.533 0-7.077 6.041-7.077 7.711 0 .856-2.925 4.411-6.5 7.899-3.575 3.488-6.504 7.14-6.51 8.116-.005.976-1.801 3.349-3.99 5.274-2.41 2.119-3.984 4.388-3.99 5.75-.006 1.329-.624 2.25-1.51 2.25-.825 0-1.5.675-1.5 1.5s-.675 1.5-1.5 1.5c-.865 0-1.5.904-1.5 2.135 0 1.175-1.125 3.178-2.5 4.453-1.375 1.274-2.5 3.19-2.5 4.257 0 1.068-.675 2.2-1.5 2.517-.825.316-1.5 1.714-1.5 3.107 0 1.392-.45 2.531-1 2.531s-1 .914-1 2.031c0 1.118-.675 2.291-1.5 2.607-.825.317-1.5 1.605-1.5 2.862 0 1.257-.675 2.545-1.5 2.862-.825.316-1.5 1.714-1.5 3.107 0 1.392-.45 2.531-1 2.531s-1 .914-1 2.031c0 1.118-.675 2.291-1.5 2.607-.825.317-1.5 1.667-1.5 3 0 1.334-.675 2.684-1.5 3-.918.353-1.5 1.869-1.5 3.91 0 1.834-.45 3.612-1 3.952-.55.34-1 1.506-1 2.59 0 1.085-.675 2.232-1.5 2.548-.929.357-1.5 1.879-1.5 4 0 2.122-.571 3.644-1.5 4-1.043.401-1.5 2.029-1.5 5.347 0 2.868-.558 5.233-1.4 5.932-.957.794-1.232 2.408-.87 5.104.409 3.051.16 4.084-1.101 4.568-1.2.46-1.629 1.921-1.629 5.549 0 3.455-.448 5.097-1.5 5.5-1.178.453-1.5 2.49-1.5 9.5 0 7.011-.322 9.048-1.5 9.5-1.29.495-1.5 5.046-1.5 32.5 0 27.455.21 32.005 1.5 32.5 1.158.445 1.5 2.375 1.5 8.469 0 6.349.293 7.893 1.5 7.893 1.177 0 1.5 1.377 1.5 6.393 0 4.992.358 6.53 1.633 7.02 1.314.504 1.513 1.509 1.014 5.144-.477 3.484-.279 4.647.867 5.087.963.369 1.486 1.941 1.486 4.463 0 2.794.424 3.893 1.5 3.893s1.5 1.099 1.5 3.893c0 2.558.52 4.093 1.518 4.475 1 .384 1.434 1.674 1.274 3.782-.14 1.832.28 3.374.982 3.608.682.227 1.226 2.099 1.226 4.218 0 2.464.53 4.013 1.5 4.386.825.316 1.5 1.441 1.5 2.5 0 1.058.722 2.201 1.604 2.539.898.345 1.357 1.259 1.042 2.078-.308.805.095 2.119.896 2.921.802.801 1.458 2.389 1.458 3.529 0 1.174.649 2.071 1.5 2.071.915 0 1.5.933 1.5 2.393 0 1.316.675 2.652 1.5 2.969.825.316 1.5 1.714 1.5 3.107 0 1.392.45 2.531 1 2.531s1 .9 1 2c0 2.083 3.264 6 5 6 .55 0 1 .961 1 2.135 0 1.175 1.125 3.178 2.5 4.453 1.375 1.274 2.5 3.034 2.5 3.912 0 .878 1.125 2.638 2.5 3.912 1.375 1.275 2.5 3.053 2.5 3.953 0 1.581 3.338 5.635 4.64 5.635 1.251 0 3.297 3.535 3.328 5.75.019 1.319.653 2.25 1.532 2.25.825 0 1.5.675 1.5 1.5s.482 1.5 1.071 1.5c1.385 0 3.929 2.544 3.929 3.929 0 .589.675 1.071 1.5 1.071s1.5.675 1.5 1.5.452 1.5 1.005 1.5c.553 0 7.503 6.525 15.444 14.5 9.244 9.282 15.179 14.5 16.495 14.5 1.131 0 2.056.415 2.056.923 0 1.64 6.098 7.077 7.937 7.077.981 0 2.628 1.125 3.66 2.5 1.033 1.375 2.829 2.5 3.991 2.5 1.17 0 3.139 1.339 4.412 3 1.403 1.83 3.216 3 4.65 3 1.292 0 2.35.45 2.35 1s.809 1 1.797 1c.988 0 2.901 1.331 4.25 2.958 1.349 1.626 3.417 2.976 4.596 3 1.179.023 2.414.748 2.745 1.611.4 1.043 1.275 1.355 2.607.933 1.425-.453 2.005-.183 2.005.931 0 1.01.9 1.567 2.531 1.567 1.393 0 2.791.675 3.107 1.5.317.825 1.605 1.5 2.862 1.5 1.257 0 2.559.711 2.892 1.58.452 1.178 1.368 1.412 3.608.92 2.24-.492 3.156-.258 3.608.92.333.869 1.635 1.58 2.892 1.58s2.545.675 2.862 1.5c.356.927 1.876 1.5 3.984 1.5 1.875 0 3.953.656 4.619 1.458.776.935 2.202 1.259 3.978.903 1.976-.395 2.945-.096 3.382 1.043.448 1.169 1.959 1.596 5.644 1.596 3.805 0 5.031.365 5.031 1.5 0 1.152 1.278 1.5 5.5 1.5 4.222 0 5.5.348 5.5 1.5 0 1.179 1.389 1.5 6.5 1.5 3.667 0 6.5.436 6.5 1 0 .596 3.833 1 9.5 1 7.778 0 9.5.272 9.5 1.5 0 1.296 3.67 1.5 27.031 1.5 23.106 0 27.115-.218 27.607-1.5.452-1.178 2.487-1.5 9.469-1.5 5.262 0 8.893-.408 8.893-1 0-.565 2.844-1 6.531-1 4.884 0 6.677-.379 7.107-1.5.401-1.044 2.03-1.5 5.362-1.5 3.332 0 4.961-.456 5.362-1.5.403-1.052 2.045-1.5 5.5-1.5 3.565 0 5.091-.436 5.53-1.58.452-1.178 1.368-1.412 3.608-.92 2.24.492 3.156.258 3.608-.92.405-1.055 1.864-1.58 4.392-1.58 2.443 0 3.99-.532 4.362-1.5.316-.825 1.503-1.5 2.638-1.5s2.338-.718 2.675-1.596c.437-1.139 1.406-1.438 3.382-1.043 1.776.356 3.202.032 3.978-.903.666-.802 2.28-1.458 3.587-1.458 1.447 0 2.378-.587 2.378-1.5 0-.915.933-1.5 2.393-1.5 1.316 0 2.649-.667 2.962-1.483.313-.816 1.203-1.24 1.978-.943.775.298 2.11-.16 2.967-1.016.856-.857 2.489-1.558 3.629-1.558 1.174 0 2.071-.649 2.071-1.5 0-.825.675-1.5 1.5-1.5s1.5-.675 1.5-1.5c0-.933.944-1.5 2.5-1.5 1.375 0 2.5-.45 2.5-1s1.013-1.019 2.25-1.042c1.237-.024 3.354-1.374 4.703-3 1.349-1.627 3.149-2.972 4-2.99 1.994-.041 5.047-2.357 5.047-3.828 0-.627.97-1.14 2.155-1.14 1.213 0 3.818-1.748 5.96-4 2.093-2.2 4.463-4 5.266-4 2.101 0 42.617-40.616 42.627-42.732.004-.972 1.974-3.505 4.378-5.627 3.069-2.711 4.222-4.423 3.875-5.75-.334-1.279.029-1.891 1.122-1.891.89 0 1.617-.675 1.617-1.5s.675-1.5 1.5-1.5c.865 0 1.5-.904 1.5-2.135 0-1.175 1.125-3.178 2.5-4.453 1.375-1.274 2.5-3.19 2.5-4.257 0-1.068.675-2.2 1.5-2.517.825-.316 1.5-1.521 1.5-2.678 0-2.24 2.154-4.96 3.929-4.96.589 0 1.071-1.139 1.071-2.531 0-1.393.675-2.791 1.5-3.107.825-.317 1.5-1.653 1.5-2.969 0-1.316.45-2.393 1-2.393s1-1.125 1-2.5c0-1.556.567-2.5 1.5-2.5.938 0 1.5-.948 1.5-2.531 0-1.393.675-2.791 1.5-3.107.825-.317 1.5-1.605 1.5-2.862 0-1.257.711-2.559 1.58-2.892 1.178-.452 1.412-1.368.92-3.608-.492-2.24-.258-3.156.92-3.608 1.066-.409 1.58-1.874 1.58-4.499 0-2.794.424-3.893 1.5-3.893 1.078 0 1.5-1.102 1.5-3.917 0-2.203.536-4.095 1.226-4.325.702-.234 1.122-1.776.982-3.608-.16-2.108.274-3.398 1.274-3.782 1.073-.411 1.518-2.026 1.518-5.506 0-3.455.448-5.097 1.5-5.5 1.113-.428 1.5-2.197 1.5-6.862 0-4.683.385-6.434 1.51-6.865 1.236-.475 1.392-1.845.858-7.584-.554-5.958-.405-7.099.991-7.635 1.475-.566 1.641-3.903 1.641-32.916 0-28.968-.168-32.351-1.636-32.914-1.415-.543-1.543-1.775-.947-9.118.583-7.178.449-8.582-.864-9.086-1.113-.427-1.553-1.991-1.553-5.52 0-3.455-.448-5.097-1.5-5.5-1.044-.401-1.5-2.03-1.5-5.362 0-3.479-.44-4.955-1.612-5.405-1.3-.499-1.481-1.486-.937-5.114.536-3.58.356-4.618-.889-5.095-1.035-.398-1.562-1.876-1.562-4.386 0-2.443-.532-3.99-1.5-4.362-.825-.316-1.5-1.441-1.5-2.5 0-1.058-.73-2.204-1.622-2.546-1.188-.456-1.467-1.399-1.042-3.52.381-1.908.081-3.311-.878-4.107-.802-.666-1.458-2.069-1.458-3.119 0-1.05-.675-2.168-1.5-2.484-.825-.317-1.5-1.605-1.5-2.862 0-1.257-.675-2.545-1.5-2.862-.825-.316-1.5-1.714-1.5-3.107 0-1.392-.45-2.531-1-2.531s-1-1.125-1-2.5c0-1.556-.567-2.5-1.5-2.5-.915 0-1.5-.933-1.5-2.393 0-1.316-.675-2.652-1.5-2.969-.825-.316-1.5-1.608-1.5-2.869 0-1.28-1.105-3.124-2.5-4.172-1.43-1.074-2.5-2.887-2.5-4.237 0-1.431-.59-2.36-1.5-2.36-.865 0-1.5-.904-1.5-2.135 0-1.175-1.125-3.178-2.5-4.453-1.375-1.274-2.5-3.031-2.5-3.904 0-.874-1.8-3.3-4-5.393-2.252-2.142-4-4.747-4-5.96 0-1.185-.482-2.155-1.071-2.155-1.385 0-3.929-2.544-3.929-3.929 0-.589-.675-1.071-1.5-1.071s-1.5-.675-1.5-1.5-.482-1.5-1.071-1.5c-1.616 0-3.929-2.643-3.929-4.49 0-2.083-17.493-19.51-19.584-19.51-1.771 0-7.416-5.27-7.416-6.923 0-.592-.675-1.077-1.5-1.077s-1.5-.513-1.5-1.14c0-1.435-3.034-3.786-4.942-3.828-.793-.018-3.12-1.832-5.172-4.032-2.051-2.2-4.597-4-5.658-4s-2.963-1.35-4.228-3c-1.265-1.65-3.164-3-4.221-3-2.088 0-4.779-2.212-4.779-3.929 0-.589-1.139-1.071-2.531-1.071-1.393 0-2.791-.675-3.107-1.5-.317-.825-1.489-1.5-2.604-1.5-1.116 0-3.071-1.125-4.346-2.5-1.504-1.624-3.396-2.5-5.396-2.5-1.814 0-3.315-.616-3.654-1.5-.317-.825-1.653-1.5-2.969-1.5-1.316 0-2.393-.45-2.393-1s-1.139-1-2.531-1c-1.393 0-2.791-.675-3.107-1.5-.317-.825-1.442-1.5-2.5-1.5-1.059 0-2.184-.675-2.5-1.5-.317-.825-1.615-1.5-2.886-1.5-1.27 0-2.492-.547-2.715-1.216-.242-.727-1.887-1.117-4.083-.969-2.744.185-3.678-.141-3.678-1.284 0-1.113-1.064-1.531-3.893-1.531-2.538 0-4.093-.522-4.469-1.5-.357-.932-1.881-1.5-4.023-1.5-1.897 0-3.628-.538-3.847-1.196-.251-.752-2.147-1.106-5.097-.954-3.477.18-4.852-.159-5.291-1.303-.449-1.169-2.13-1.547-6.88-1.547-4.665 0-6.434-.387-6.862-1.5-.439-1.145-2.312-1.5-7.907-1.5-4.032 0-7.811-.48-8.399-1.068-1.65-1.65-68.298-1.823-69.939-.182M85.25 381.496c-.687.781-1.25 2.353-1.25 3.493 0 1.141-.675 2.333-1.5 2.649-.825.317-1.5 1.653-1.5 2.969V393H66.607c-11.871 0-14.494.263-14.969 1.5-.34.887-1.842 1.5-3.678 1.5-1.707 0-3.804.701-4.66 1.558-.857.856-2.192 1.314-2.967 1.016-.775-.297-1.665.127-1.978.943-.313.816-1.45 1.483-2.527 1.483-1.076 0-3.101 1.359-4.498 3.02-1.397 1.66-3.056 2.901-3.687 2.756C26.039 406.408 17 415.109 17 417.022c0 .865-1.331 2.676-2.958 4.025-1.626 1.349-2.976 3.465-3 4.703-.023 1.238-.492 2.25-1.042 2.25s-1 1.077-1 2.393c0 1.316-.675 2.652-1.5 2.969-1.058.406-1.5 2.057-1.5 5.607C6 442.774 5.635 444 4.5 444c-1.246 0-1.5 1.944-1.5 11.5 0 9.556.254 11.5 1.5 11.5 1.076 0 1.5 1.099 1.5 3.893 0 2.538.522 4.093 1.5 4.469.941.361 1.5 1.89 1.5 4.107 0 1.942.45 3.531 1 3.531s1.004 1.012 1.008 2.25c.005 1.404 1.696 3.741 4.499 6.217 3.162 2.793 4.323 4.494 3.924 5.75-.429 1.352-.019 1.783 1.693 1.783 1.348 0 3.765 1.614 5.99 4 2.051 2.2 4.499 4 5.44 4 2.287 0 8.446 6.637 8.446 9.103 0 1.078-.675 2.219-1.5 2.535-1.113.428-1.5 2.197-1.5 6.862s-.387 6.434-1.5 6.862c-.972.373-1.494 1.906-1.483 4.357.02 4.282 3.339 8.281 6.874 8.281 1.314 0 2.109.638 2.109 1.691 0 1.543.109 1.551 1.25.084.688-.883 2.145-1.762 3.239-1.952 1.093-.19 2.144-1.241 2.334-2.334.19-1.094 1.027-2.521 1.861-3.172 1.139-.89 1.344-2.19.828-5.248-.545-3.221-.358-4.191.9-4.674 1.179-.452 1.588-1.999 1.588-6.002V518h10.531c8.439 0 10.646-.298 11.107-1.5.353-.918 1.869-1.5 3.91-1.5 1.834 0 3.612-.45 3.952-1 .34-.55 2.181-1 4.09-1 2.164 0 3.69-.565 4.048-1.5.317-.825 1.653-1.5 2.969-1.5 1.46 0 2.393-.585 2.393-1.5 0-.825.482-1.5 1.071-1.5 1.385 0 3.929-2.544 3.929-3.929 0-.589 1.35-1.071 3-1.071 2 0 3-.5 3-1.5 0-.825.45-1.5 1-1.5s1-1.125 1-2.5c0-1.556.567-2.5 1.5-2.5.825 0 1.5-.675 1.5-1.5s.482-1.5 1.071-1.5c1.725 0 4.305-3.072 4.471-5.322.084-1.142.672-2.249 1.306-2.461.633-.211 1.152-1.423 1.152-2.693 0-1.271.675-2.569 1.5-2.886.929-.356 1.5-1.878 1.5-4 0-2.074.574-3.644 1.455-3.982 2.135-.82 2.126-27.496-.01-28.316-.871-.334-1.445-1.915-1.445-3.978 0-2.122-.571-3.644-1.5-4-.825-.317-1.5-1.605-1.5-2.862 0-1.257-.726-2.565-1.613-2.905-1.001-.384-1.423-1.35-1.111-2.543.289-1.106-.087-2.149-.887-2.456-.764-.293-1.389-1.269-1.389-2.169 0-2.394-14.474-16.427-16.944-16.427-1.161 0-2.056-.653-2.056-1.5 0-.825-.675-1.5-1.5-1.5-1 0-1.5-1-1.5-3s.5-3 1.5-3c2.501 0 2.074-11.064-.511-13.278-2.463-2.108-9.955-2.253-11.739-.226m513.112 2.004c-.467 1.216-2.808 1.5-12.362 1.5s-11.895.284-12.362 1.5c-.42 1.096-2.146 1.5-6.407 1.5-3.207 0-6.372.541-7.032 1.201-.677.677-3.165 1.08-5.7.925-3.545-.218-4.499.057-4.499 1.298 0 1.165-1.016 1.576-3.893 1.576-2.538 0-4.093.522-4.469 1.5-.34.887-1.842 1.5-3.678 1.5-1.707 0-3.763.66-4.57 1.467-.961.962-2.488 1.263-4.429.875-2.31-.462-2.961-.235-2.961 1.033 0 1.072-.861 1.625-2.531 1.625-1.393 0-2.791.675-3.107 1.5-.376.978-1.931 1.5-4.469 1.5-2.141 0-3.893.45-3.893 1s-.914 1-2.031 1c-1.118 0-2.291.675-2.607 1.5-.317.825-1.553 1.5-2.747 1.5-3.702 0-7.532 6.194-4.463 7.217.634.212 1.222 1.319 1.306 2.461.166 2.25 2.746 5.322 4.471 5.322.589 0 1.071 1.139 1.071 2.531 0 1.393.675 2.791 1.5 3.107.825.317 1.5 1.653 1.5 2.969 0 1.316.45 2.393 1 2.393s1 1.058 1 2.35c0 1.434 1.17 3.247 3 4.65 1.65 1.265 3 3.105 3 4.091 0 .985.45 2.069 1 2.409.55.34 1 1.506 1 2.59 0 1.085.675 2.232 1.5 2.548.837.321 1.5 1.808 1.5 3.362s-.663 3.041-1.5 3.362c-.825.316-1.5 1.489-1.5 2.607 0 1.834-.633 2.031-6.542 2.031-7.112 0-11.329-2.288-10.103-5.482.359-.936-.001-1.829-.872-2.163-.816-.313-1.483-1.646-1.483-2.962 0-1.46-.585-2.393-1.5-2.393-.845 0-1.5-.894-1.5-2.048 0-1.126-1.125-3.09-2.5-4.364-1.375-1.275-2.5-3.278-2.5-4.453 0-1.231-.635-2.135-1.5-2.135-1 0-1.5-1-1.5-3s-.5-3-1.5-3c-.864 0-1.5-.904-1.5-2.132 0-1.975-6.158-8.868-7.922-8.868-.428 0-1.813 1.35-3.078 3s-3.058 3-3.986 3c-.927 0-3.302 1.8-5.277 4s-4.289 4-5.142 4c-1.905 0-43.193 40.95-42.847 42.495.136.608-1.656 3.087-3.982 5.509-2.327 2.421-4.239 4.941-4.249 5.599-.009.658-1.255 2.345-2.767 3.749s-2.75 3.436-2.75 4.517c0 1.08-.522 2.138-1.159 2.351-1.659.553 2.163 4.78 4.322 4.78.946 0 1.997.45 2.337 1 .34.55 1.424 1 2.409 1 .986 0 2.826 1.35 4.091 3 1.403 1.83 3.216 3 4.65 3 1.292 0 2.35.45 2.35 1s1.077 1 2.393 1c1.316 0 2.652.675 2.969 1.5.316.825 1.714 1.5 3.107 1.5 1.392 0 2.531.482 2.531 1.071 0 1.693 2.679 3.929 4.706 3.929 2.278 0 5.294 3.364 5.294 5.904 0 1.035.675 2.141 1.5 2.458.825.316 1.5 1.216 1.5 2 0 .783-.675 1.683-1.5 2-.825.316-1.5 1.489-1.5 2.607 0 1.375-.656 2.031-2.031 2.031-1.118 0-2.291.675-2.607 1.5-.317.825-1.217 1.5-2 1.5-.784 0-1.684-.675-2-1.5-.317-.825-1.653-1.5-2.969-1.5-1.316 0-2.393-.45-2.393-1s-1.125-1-2.5-1c-1.556 0-2.5-.567-2.5-1.5 0-1-1-1.5-3-1.5s-3-.5-3-1.5c0-.865-.904-1.5-2.135-1.5-1.175 0-3.178-1.125-4.453-2.5-1.274-1.375-3.238-2.5-4.364-2.5-1.154 0-2.048-.655-2.048-1.5 0-.933-.944-1.5-2.5-1.5-1.375 0-2.5-.45-2.5-1s-1.139-1-2.531-1c-1.393 0-2.791-.675-3.107-1.5-1.266-3.298-7.362.11-7.362 4.115 0 1.194-.675 2.43-1.5 2.747-.825.316-1.5 1.489-1.5 2.607 0 1.117-.45 2.031-1 2.031s-1 1.752-1 3.893c0 2.538-.522 4.093-1.5 4.469-.825.316-1.5 1.714-1.5 3.107 0 1.583-.562 2.531-1.5 2.531-1.083 0-1.5 1.111-1.5 4 0 2.2-.45 4-1 4s-1 1.589-1 3.531c0 2.217-.559 3.746-1.5 4.107-1.052.404-1.5 2.046-1.5 5.5 0 3.455-.448 5.097-1.5 5.5-1.051.404-1.5 2.042-1.5 5.469 0 2.691-.45 4.893-1 4.893-.562 0-1 2.798-1 6.393 0 4.76-.383 6.54-1.5 6.969-1.224.469-1.5 2.906-1.5 13.246 0 10.895-.245 12.858-1.75 14-1.667 1.265-1.667 1.33 0 1.36.962.018 1.75.707 1.75 1.532 0 1.294 3.473 1.5 25.259 1.5 28.589 0 27.424-.342 27.866 8.188.16 3.1-.328 5.026-1.672 6.595-1.865 2.178-2.328 2.217-26.675 2.217H365v13.893c0 11.427.266 13.995 1.5 14.469 1.15.441 1.5 2.335 1.5 8.107 0 4.354.422 7.531 1 7.531.55 0 1 2.264 1 5.031 0 3.55.442 5.201 1.5 5.607.978.376 1.5 1.931 1.5 4.469 0 2.794.424 3.893 1.5 3.893 1.152 0 1.5 1.278 1.5 5.5 0 3.025.45 5.5 1 5.5s1 1.125 1 2.5c0 1.556.567 2.5 1.5 2.5 1.076 0 1.5 1.099 1.5 3.893 0 2.538.522 4.093 1.5 4.469.825.316 1.5 1.434 1.5 2.484s.648 2.447 1.441 3.105c.792.657 1.195 1.834.896 2.614-.3.78.177 1.695 1.059 2.034.882.338 1.604 1.644 1.604 2.901s.675 2.545 1.5 2.862c.825.316 1.5 1.714 1.5 3.107 0 1.864.527 2.531 2 2.531 1.111 0 2-.667 2-1.5 0-.866.905-1.5 2.142-1.5 1.178 0 3.421-1.339 4.984-2.975 1.704-1.782 3.447-2.742 4.35-2.396.869.334 1.768-.101 2.123-1.025.338-.882 1.692-1.604 3.008-1.604s2.407-.562 2.424-1.25c.043-1.688 4.736-5.012 5.985-4.24.549.339 1.268-.087 1.598-.947.33-.859 1.691-1.563 3.024-1.563 1.334 0 2.684-.675 3-1.5.317-.825 1.615-1.5 2.886-1.5 1.27 0 2.479-.509 2.687-1.132.207-.622 1.812-1.244 3.565-1.382 3.711-.292 7.224 2.273 7.224 5.274 0 1.114.675 2.285 1.5 2.602.825.316 1.5 1.216 1.5 2 0 .783-.675 1.683-1.5 2-.825.316-1.5 1.489-1.5 2.607 0 1.288-.657 2.031-1.797 2.031-.988 0-2.901 1.331-4.25 2.958-1.349 1.626-3.465 2.976-4.703 3-1.238.023-2.25.492-2.25 1.042s-1.139 1-2.531 1c-1.393 0-2.791.675-3.107 1.5-.317.825-1.653 1.5-2.969 1.5-1.316 0-2.393.567-2.393 1.259 0 1.536-4.018 4.257-5.763 3.903-.695-.141-1.531.44-1.857 1.291-.327.851-1.431 1.547-2.454 1.547-1.022 0-3.434 1.575-5.359 3.5-2.152 2.152-2.935 3.5-2.034 3.5.835 0 1.467.928 1.467 2.155 0 1.213 1.748 3.818 4 5.96 2.2 2.093 4 4.498 4 5.345 0 .847 1.8 3.34 4 5.54s4 4.9 4 6c0 1.111.667 2 1.5 2 .825 0 1.5.415 1.5.923 0 1.201 5.876 7.077 7.077 7.077.508 0 .923.675.923 1.5s.415 1.5.923 1.5c1.201 0 7.077 5.876 7.077 7.077 0 .508.599.923 1.331.923s1.933 1.125 2.669 2.5 1.937 2.5 2.669 2.5 1.331.675 1.331 1.5.675 1.5 1.5 1.5 1.5.482 1.5 1.071c0 1.679 2.671 3.928 4.679 3.939 1.001.005 3.396 1.801 5.321 3.99 1.925 2.189 4.309 3.985 5.298 3.99.989.006 2.946 1.247 4.35 2.76 1.404 1.513 3.07 2.771 3.702 2.797 1.915.078 5.65 2.851 5.65 4.194 0 .692.45 1.259 1 1.259s1-.675 1-1.5.675-1.5 1.5-1.5c.933 0 1.5-.944 1.5-2.5 0-1.375.45-2.5 1-2.5s1.019-1.013 1.042-2.25c.024-1.237 1.374-3.354 3-4.703 1.627-1.349 2.958-3.235 2.958-4.191s.45-2.016 1-2.356c.55-.34 1-1.424 1-2.409 0-.986 1.35-2.826 3-4.091 1.759-1.348 3-3.227 3-4.543 0-1.233.704-2.513 1.563-2.843.86-.33 1.279-1.06.931-1.623-.347-.563 1.067-2.816 3.143-5.007 4.844-5.112 7.906-5.232 12.777-.502 2.942 2.857 3.586 4.204 3.586 7.5 0 2.905-.416 4.018-1.5 4.018-.865 0-1.5.904-1.5 2.135 0 1.175-1.125 3.178-2.5 4.453-1.375 1.274-2.5 3.19-2.5 4.257 0 1.068-.675 2.2-1.5 2.517-.825.316-1.5 1.489-1.5 2.607 0 1.117-.45 2.031-1 2.031s-1 1.058-1 2.35c0 1.434-1.17 3.247-3 4.65-1.83 1.403-3 3.216-3 4.65 0 1.292-.45 2.35-1 2.35s-1 .914-1 2.031c0 1.118-.675 2.291-1.5 2.607-.825.317-1.5 1.653-1.5 2.969 0 1.886.53 2.393 2.5 2.393 1.375 0 2.5.45 2.5 1s1.139 1 2.531 1c1.393 0 2.791.675 3.107 1.5.317.825 1.605 1.5 2.862 1.5 1.257 0 2.545.675 2.862 1.5.316.825 1.489 1.5 2.607 1.5 1.117 0 2.031.45 2.031 1s1.752 1 3.893 1c2.538 0 4.093.522 4.469 1.5.356.929 1.878 1.5 4 1.5 2.121 0 3.643.571 4 1.5.358.935 1.884 1.5 4.048 1.5 1.909 0 3.75.45 4.09 1 .34.55 2.841 1 5.559 1 3.725 0 4.941.369 4.941 1.5 0 1.152 1.278 1.5 5.5 1.5 4.222 0 5.5.348 5.5 1.5 0 1.208 1.556 1.5 8 1.5 4.667 0 8 .417 8 1 0 .615 5 1 13 1h13v-24.5c0-23.167.109-24.609 2-26.5 1.407-1.407 3.333-2 6.5-2s5.093.593 6.5 2c1.891 1.891 2 3.333 2 26.5V887h13c8 0 13-.385 13-1 0-.578 3.177-1 7.531-1 5.772 0 7.666-.35 8.107-1.5.404-1.052 2.046-1.5 5.5-1.5 3.455 0 5.097-.448 5.5-1.5.404-1.051 2.042-1.5 5.469-1.5 2.691 0 4.893-.45 4.893-1s1.8-1 4-1c2.889 0 4-.417 4-1.5 0-1.076 1.099-1.5 3.893-1.5 2.538 0 4.093-.522 4.469-1.5.361-.941 1.89-1.5 4.107-1.5 1.942 0 3.531-.45 3.531-1s1.139-1 2.531-1c1.393 0 2.791-.675 3.107-1.5.317-.825 1.653-1.5 2.969-1.5 1.46 0 2.393-.585 2.393-1.5 0-.933.944-1.5 2.5-1.5 1.375 0 2.5-.45 2.5-1s1.139-1 2.531-1c3.121 0 4.45-2.81 2.131-4.505-.914-.668-1.662-2.13-1.662-3.248 0-1.118-.675-2.292-1.5-2.609-.825-.316-1.5-1.521-1.5-2.678 0-2.24-2.154-4.96-3.929-4.96-.589 0-1.071-1.139-1.071-2.531 0-1.393-.675-2.791-1.5-3.107-.825-.317-1.5-1.653-1.5-2.969 0-1.316-.45-2.393-1-2.393s-1-1.125-1-2.5c0-1.556-.567-2.5-1.5-2.5-.825 0-1.5-.675-1.5-1.5s-.675-1.5-1.5-1.5c-.933 0-1.5-.944-1.5-2.5 0-1.375-.45-2.5-1-2.5s-1-1.822-1-4.05c0-3.24.669-4.738 3.351-7.5 4.488-4.62 7.84-4.587 12.281.121 1.852 1.964 3.368 4.391 3.368 5.393 0 1.002.675 2.081 1.5 2.398.825.316 1.5 1.457 1.5 2.534 0 1.077 1.125 2.844 2.5 3.925 1.375 1.082 2.5 2.929 2.5 4.104 0 1.176.675 2.397 1.5 2.713.825.317 1.5 1.653 1.5 2.969 0 1.46.585 2.393 1.5 2.393.865 0 1.5.904 1.5 2.135 0 1.175 1.125 3.178 2.5 4.453 1.375 1.274 2.5 3.013 2.5 3.864 0 .852.829 2.377 1.842 3.39 1.789 1.789 1.917 1.76 4.466-.982 1.444-1.552 3.235-2.589 3.98-2.303.754.289 2.386-.826 3.683-2.519 1.28-1.671 3.193-3.038 4.25-3.038 1.794 0 4.779-2.142 4.779-3.429 0-1.22 4.081-4.571 5.567-4.571 1.869 0 34.418-32.282 34.466-34.183.044-1.721 3.478-5.817 4.877-5.817.6 0 1.09-.675 1.09-1.5s.661-1.5 1.469-1.5c.928 0 1.245-.582.861-1.582-.408-1.063.949-3.011 4.132-5.933 2.606-2.393 4.464-4.795 4.129-5.337-.335-.543.035-1.631.823-2.419 1.244-1.244.993-1.849-1.904-4.581-1.836-1.731-4.066-3.148-4.955-3.148-.89 0-1.877-.675-2.193-1.5-.317-.825-1.546-1.5-2.732-1.5-1.185 0-3-1.125-4.033-2.5-1.032-1.375-2.891-2.5-4.13-2.5-1.239 0-2.512-.675-2.829-1.5-.316-.825-1.489-1.5-2.607-1.5-1.117 0-2.031-.45-2.031-1s-1.058-1-2.35-1c-1.434 0-3.247-1.17-4.65-3-1.403-1.83-3.216-3-4.65-3-1.818 0-2.35-.547-2.35-2.417 0-1.329-.562-2.62-1.25-2.869-1-.362-1-.876 0-2.57.688-1.164 1.25-2.671 1.25-3.349 0-2.622 4.732-5.425 8.431-4.993 1.963.229 3.569.818 3.569 1.307 0 .49 1.077.891 2.393.891 1.316 0 2.652.675 2.969 1.5.316.825 1.503 1.5 2.638 1.5s2.332.701 2.66 1.557c.348.907 1.243 1.311 2.141.966.958-.368 2.594.558 4.315 2.442 1.524 1.669 3.648 3.035 4.721 3.035 1.072 0 2.226.722 2.564 1.604.339.882 1.254 1.359 2.034 1.059.78-.299 1.957.104 2.614.896.658.793 1.915 1.441 2.793 1.441.879 0 2.805 1.415 4.281 3.144 3.093 3.624 5.877 3.334 5.877-.613 0-1.631.557-2.531 1.567-2.531 1.114 0 1.384-.58.931-2.005-.422-1.332-.11-2.207.933-2.607.863-.331 1.569-1.631 1.569-2.888s.675-2.545 1.5-2.862c.825-.316 1.5-1.714 1.5-3.107 0-1.606.56-2.531 1.531-2.531 1.143 0 1.469-.934 1.284-3.678-.148-2.196.242-3.841.969-4.083.669-.223 1.216-1.957 1.216-3.854 0-2.142.568-3.666 1.5-4.023.968-.372 1.5-1.919 1.5-4.362s.532-3.99 1.5-4.362c.941-.361 1.5-1.89 1.5-4.107 0-1.942.45-3.531 1-3.531s1-2.264 1-5.031c0-3.55.442-5.201 1.5-5.607 1.158-.445 1.5-2.375 1.5-8.469 0-6.414.286-7.893 1.528-7.893 1.311 0 1.489-1.96 1.25-13.75l-.278-13.75-24.768-.268c-23.164-.25-24.895-.395-26.75-2.25-2.736-2.736-2.736-10.228 0-12.964 1.855-1.855 3.586-2 26.75-2.25l24.768-.268.278-14.945c.233-12.563.034-15.081-1.25-15.799-1.124-.629-1.528-2.56-1.528-7.306 0-5.067-.322-6.45-1.5-6.45-1.125 0-1.5-1.2-1.5-4.8 0-2.64-.541-5.341-1.201-6.001-.677-.677-1.08-3.165-.925-5.7.218-3.545-.057-4.499-1.298-4.499-1.165 0-1.576-1.016-1.576-3.893 0-2.538-.522-4.093-1.5-4.469-.941-.361-1.5-1.89-1.5-4.107 0-1.942-.45-3.531-1-3.531s-1-1.139-1-2.531c0-1.393-.675-2.791-1.5-3.107-.929-.357-1.5-1.879-1.5-4 0-2.122-.571-3.644-1.5-4-.825-.317-1.5-1.653-1.5-2.969 0-1.316-.45-2.393-1-2.393s-1-.9-1-2c0-2.288-3.327-6-5.378-6-.757 0-1.937.675-2.622 1.5-.685.825-2.09 1.5-3.122 1.5-1.033 0-1.878.45-1.878 1s-1.125 1-2.5 1c-1.556 0-2.5.567-2.5 1.5 0 1-1 1.5-3 1.5-1.65 0-3 .482-3 1.071 0 1.775-2.72 3.929-4.96 3.929-1.157 0-2.362.675-2.678 1.5-.317.825-1.605 1.5-2.862 1.5-1.257 0-2.545.675-2.862 1.5-.316.825-1.714 1.5-3.107 1.5-1.392 0-2.531.45-2.531 1s-.914 1-2.031 1c-1.118 0-2.291.675-2.607 1.5-.317.825-1.155 1.5-1.862 1.5-.707 0-1.545-.675-1.862-1.5-.316-.825-1.714-1.5-3.107-1.5-2.01 0-2.531-.498-2.531-2.417 0-1.329-.562-2.62-1.25-2.869-1-.362-1-.876 0-2.57.688-1.164 1.25-2.812 1.25-3.662 0-.85.675-1.804 1.5-2.12.825-.317 1.5-1.203 1.5-1.969s.961-1.393 2.135-1.393c1.175 0 3.178-1.125 4.453-2.5 1.274-1.375 3.19-2.5 4.257-2.5 1.068 0 2.2-.675 2.517-1.5.316-.825 1.714-1.5 3.107-1.5 1.392 0 2.531-.45 2.531-1s1.125-1 2.5-1 2.5-.45 2.5-1c0-1.736 3.917-5 6-5 1.1 0 2-.45 2-1s1.025-1 2.278-1c1.253 0 3.083-.941 4.067-2.09 1.65-1.927 1.662-2.185.152-3.289-.901-.658-1.494-1.689-1.318-2.289.177-.6-.916-2.249-2.429-3.664s-2.75-3.33-2.75-4.256c0-.925-1.125-2.725-2.5-4-1.375-1.274-2.5-2.996-2.5-3.826 0-1.74-8.281-10.586-9.911-10.586-.599 0-1.089-.675-1.089-1.5s-.599-1.5-1.331-1.5-1.933-1.125-2.669-2.5-1.937-2.5-2.669-2.5-1.331-.675-1.331-1.5-.415-1.5-.923-1.5c-1.201 0-7.077-5.876-7.077-7.077 0-.508-.675-.923-1.5-.923s-1.5-.482-1.5-1.071c0-1.385-2.544-3.929-3.929-3.929-.589 0-1.071-.675-1.071-1.5s-.675-1.5-1.5-1.5-1.5-.465-1.5-1.034c0-1.553-5.855-6.966-7.536-6.966-.806 0-3.213-1.8-5.348-4s-4.635-4-5.555-4c-.921 0-2.943-1.389-4.494-3.087l-2.819-3.088-3.159 3.088c-1.737 1.698-3.592 3.087-4.123 3.087-.532 0-.966 1.125-.966 2.5s-.45 2.5-1 2.5-1 1.139-1 2.531c0 1.393-.675 2.791-1.5 3.107-.825.317-1.5 1.428-1.5 2.469 0 1.944-3.288 5.893-4.906 5.893-.499 0-.673.895-.387 1.988.33 1.261-.07 2.214-1.094 2.607-.887.34-1.613 1.492-1.613 2.56 0 1.067-1.232 3.082-2.737 4.477-1.505 1.395-2.742 3.286-2.75 4.202-.011 1.373-1.288 1.718-7.263 1.96-7.177.291-7.25.268-7.25-2.25 0-1.399-.45-2.544-1-2.544s-1-1.35-1-3 .45-3 1-3 1-1.077 1-2.393c0-1.316.675-2.652 1.5-2.969.825-.316 1.5-1.714 1.5-3.107 0-1.392.482-2.531 1.071-2.531 1.775 0 3.929-2.72 3.929-4.96 0-1.157.675-2.362 1.5-2.678.825-.317 1.5-1.605 1.5-2.862 0-1.257.675-2.545 1.5-2.862.825-.316 1.5-1.521 1.5-2.678 0-2.24 2.154-4.96 3.929-4.96.589 0 1.071-1.139 1.071-2.531 0-1.393.675-2.791 1.5-3.107.825-.317 1.5-1.428 1.5-2.469s-.675-1.893-1.5-1.893-1.5-.675-1.5-1.5c0-.915-.933-1.5-2.393-1.5-1.316 0-2.652-.675-2.969-1.5-.316-.825-1.714-1.5-3.107-1.5-1.392 0-2.531-.45-2.531-1s-1.589-1-3.531-1c-2.217 0-3.746-.559-4.107-1.5-.317-.825-1.605-1.5-2.862-1.5-1.257 0-2.566-.73-2.908-1.622-.464-1.207-1.395-1.467-3.645-1.017-2.164.432-3.185.183-3.592-.878-.364-.949-1.932-1.483-4.355-1.483-2.443 0-3.99-.532-4.362-1.5-.356-.929-1.878-1.5-4-1.5-2.121 0-3.643-.571-4-1.5-.406-1.058-2.057-1.5-5.607-1.5-2.767 0-5.031-.45-5.031-1 0-.562-2.798-1-6.393-1-4.76 0-6.54-.383-6.969-1.5-.465-1.212-2.767-1.5-12-1.5-9.232 0-11.534-.288-12-1.5-.394-1.028-2.001-1.5-5.107-1.5H625v27c0 23.333-.204 27-1.5 27-.825 0-1.5.675-1.5 1.5 0 2.435-9.46 2.04-12-.5-1.891-1.891-2-3.333-2-26.531 0-20.884-.223-24.617-1.5-25.107-.825-.317-1.5-1.203-1.5-1.969 0-1.938-5.89-1.843-6.638.107m553.36 35.511c-2.146 2.507-2.399 12.183-.362 13.873.803.666 1.155 2.205.858 3.753-.34 1.782.026 2.92 1.14 3.544.903.505 1.642 2.021 1.642 3.369 0 1.447.58 2.45 1.417 2.45.779 0 1.583.5 1.787 1.111.655 1.967 8.488 1.729 10.234-.31 1.767-2.063 2.245-13.801.562-13.801-.55 0-1-1.589-1-3.531 0-2.217-.559-3.746-1.5-4.107-.825-.317-1.5-1.428-1.5-2.469 0-5.304-9.645-8.124-13.278-3.882m21.028 67.072c-2.367 2.593-2.576 15.917-.25 15.917 1.146 0 1.5 1.259 1.5 5.331 0 4.663.313 5.499 2.5 6.669 1.375.736 2.5 1.937 2.5 2.669 0 1.829 3.926 1.686 4.638-.169.317-.825 1.653-1.5 2.969-1.5 1.857 0 2.393-.536 2.393-2.393 0-1.316.675-2.652 1.5-2.969.825-.316 1.5-1.216 1.5-2 0-.783-.675-1.683-1.5-2-1.052-.403-1.5-2.045-1.5-5.5 0-3.454-.448-5.096-1.5-5.5-.875-.335-1.5-1.833-1.5-3.595 0-1.661-.775-3.925-1.722-5.032-2.292-2.676-9.057-2.633-11.528.072m-661.5 62.907c-1.238 1.007-2.25 2.723-2.25 3.813 0 1.091-.675 2.242-1.5 2.559-.825.316-1.5 1.216-1.5 2 0 .783.675 1.683 1.5 2 .825.316 1.5 1.259 1.5 2.095 0 2.412 3.232 5.543 5.722 5.543 1.253 0 2.278.4 2.278.888 0 1.552 9.027 10.112 10.664 10.112.863 0 3.317 1.8 5.452 4s4.615 4 5.511 4c.897 0 3.981 2.486 6.854 5.525 3.662 3.873 5.718 5.336 6.872 4.893 1.108-.425 1.647-.106 1.647.975 0 .884.675 1.607 1.5 1.607s1.5.415 1.5.923c0 1.53 6.04 7.077 7.706 7.077.854 0 3.97 2.475 6.923 5.5s6.063 5.5 6.91 5.5c.848 0 3.253 1.8 5.346 4 2.142 2.252 4.747 4 5.96 4 1.249 0 2.155.631 2.155 1.5 0 .825.482 1.5 1.071 1.5 1.125 0 3.929 2.447 3.929 3.429 0 1.24 4.093 4.571 5.617 4.571.889 0 3.364 1.8 5.499 4 3.509 3.616 4.362 4 8.883 4 3.779 0 5.001-.367 5.001-1.5 0-.91.929-1.5 2.36-1.5 1.35 0 3.163-1.07 4.237-2.5 1.033-1.375 2.848-2.5 4.033-2.5 1.186 0 2.415-.675 2.732-1.5.316-.825 1.714-1.5 3.107-1.5 1.392 0 2.531-.482 2.531-1.071 0-1.775 2.72-3.929 4.96-3.929 1.157 0 2.362-.675 2.678-1.5.317-.825 1.449-1.5 2.517-1.5 1.067 0 2.983-1.125 4.257-2.5 1.275-1.375 3.278-2.5 4.453-2.5 1.231 0 2.135-.635 2.135-1.5 0-.938.948-1.5 2.531-1.5 1.393 0 2.791-.675 3.107-1.5.317-.825 1.449-1.5 2.517-1.5 1.067 0 2.983-1.125 4.257-2.5 1.275-1.375 3.278-2.5 4.453-2.5 1.231 0 2.135-.635 2.135-1.5 0-.91.929-1.5 2.36-1.5 1.35 0 3.163-1.07 4.237-2.5 1.033-1.375 2.848-2.5 4.033-2.5 1.186 0 2.415-.675 2.732-1.5.316-.825 1.537-1.5 2.713-1.5 1.175 0 3.022-1.125 4.104-2.5 1.081-1.375 2.668-2.5 3.526-2.5.857 0 3.074-1.607 4.927-3.571 2.779-2.947 3.368-4.345 3.368-8 0-6.152-2.431-8.429-9-8.429-3.778 0-5 .367-5 1.5 0 .825-.675 1.5-1.5 1.5s-1.5.675-1.5 1.5c0 .933-.944 1.5-2.5 1.5-1.375 0-2.5.45-2.5 1s-1.013 1.019-2.25 1.042c-1.237.024-3.354 1.374-4.703 3-1.349 1.627-3.235 2.958-4.191 2.958s-2.016.45-2.356 1c-.34.55-1.506 1-2.59 1-1.085 0-2.232.675-2.548 1.5-.317.825-1.449 1.5-2.517 1.5-1.067 0-2.983 1.125-4.257 2.5-1.275 1.375-3.23 2.5-4.346 2.5-1.115 0-2.287.675-2.604 1.5-.316.825-1.714 1.5-3.107 1.5-1.392 0-2.531.482-2.531 1.071 0 1.775-2.72 3.929-4.96 3.929-1.157 0-2.362.675-2.678 1.5-.317.825-1.449 1.5-2.517 1.5-1.067 0-2.983 1.125-4.257 2.5-1.275 1.375-3.278 2.5-4.453 2.5-1.231 0-2.135.635-2.135 1.5 0 .847-.895 1.5-2.056 1.5-1.131 0-3.338 1.403-4.905 3.118-1.566 1.715-3.29 2.845-3.83 2.511-.54-.334-1.541.066-2.224.889-1.081 1.303-1.543 1.172-3.566-1.011-1.278-1.379-3.02-2.507-3.871-2.507-1.725 0-5.548-3.446-5.548-5 0-.55-.675-1-1.5-1s-1.5-.45-1.5-1-1.125-1-2.5-1c-1.556 0-2.5-.567-2.5-1.5 0-.825-.675-1.5-1.5-1.5s-1.5-.465-1.5-1.034c0-1.553-5.855-6.966-7.534-6.966-.806 0-3.96-2.475-7.01-5.5-3.049-3.025-6.251-5.5-7.116-5.5-.864 0-3.825-2.362-6.58-5.25-3.22-3.375-5.679-5.138-6.884-4.937-1.168.195-1.876-.277-1.876-1.25 0-.86-.675-1.563-1.5-1.563s-1.5-.415-1.5-.923c0-1.543-6.046-7.077-7.732-7.077-.868 0-3.29-1.8-5.383-4s-4.518-4-5.389-4c-.871 0-4-2.475-6.953-5.5-2.977-3.049-6.262-5.5-7.373-5.5-1.102 0-2.153-.379-2.337-.841-.749-1.891-6.331-2.001-8.583-.169m675.156 6.339c-.602.69-1.411 6.241-1.796 12.338-.602 9.506-.482 11.168.844 11.677.85.326 1.546 1.732 1.546 3.125 0 1.583.562 2.531 1.5 2.531.825 0 1.5.675 1.5 1.5 0 1.048 1.056 1.5 3.5 1.5 1.925 0 3.5-.45 3.5-1 0-1.297 3.703-5 5-5 1.703 0 1.232-10.974-.5-11.638-1.109-.426-1.5-2.184-1.5-6.747 0-4.945-.4-6.513-2.011-7.893-2.363-2.023-9.936-2.28-11.583-.393M31.75 585.083c-1.336 1.464-1.75 3.666-1.75 9.31 0 5.649-.354 7.529-1.5 7.969-.825.316-1.5 1.728-1.5 3.138s.675 2.822 1.5 3.138c.825.317 1.5 1.428 1.5 2.469s.9 2.793 2 3.893c2.395 2.395 8 2.746 8 .5 0-.825.445-1.5.989-1.5.543 0 1.912-.788 3.041-1.75 1.937-1.651 2.014-2.427 1.36-13.665-.5-8.596-1.13-12.427-2.264-13.75-2.143-2.504-9-2.354-11.376.248m1158.5 41.543c-3.224 3.403-3.25 3.511-3.25 13.488 0 9.955.033 10.093 3.22 13.472 4.135 4.384 7.557 4.483 11.703.337 3.044-3.044 3.077-3.188 3.077-13.549v-10.473l-3.351-3.451c-4.235-4.36-7.144-4.315-11.399.176m-1160 29.793c-2.8 2.84-3.25 3.994-3.25 8.332 0 3.553.441 5.204 1.5 5.611 1.121.43 1.5 2.223 1.5 7.107 0 5.139.32 6.531 1.5 6.531.825 0 1.5.675 1.5 1.5 0 1.1 1.142 1.5 4.278 1.5 6.764 0 7.765-1.904 8.276-15.743l.428-11.573-3.441-3.342c-4.484-4.354-7.944-4.333-12.291.077m1157.067 39.934c-2.837 2.88-3.122 3.686-2.621 7.421.443 3.297.215 4.323-1.067 4.815-1.287.494-1.629 2.069-1.629 7.507 0 9.24 1.407 10.904 9.222 10.904 5.428 0 5.778-.145 5.778-2.393 0-1.316.689-2.657 1.53-2.98 1.283-.493 1.485-2.634 1.25-13.276-.279-12.665-.284-12.688-2.729-12.867-1.347-.099-2.622-.698-2.834-1.332-.683-2.051-3.64-1.108-6.9 2.201M41 723c0 1.297-3.703 5-5 5-1.678 0-1.213 8.704.5 9.362 1.105.424 1.5 2.171 1.5 6.638 0 4.467.395 6.214 1.5 6.638.825.317 1.5 1.653 1.5 2.969 0 2.258.338 2.393 6 2.393 5.364 0 6-.215 6-2.031 0-1.118.675-2.291 1.5-2.607 1.953-.75 1.953-6.052 0-8.005-1.143-1.143-1.349-2.789-.865-6.908.525-4.466.351-5.517-1-6.035-.899-.346-1.635-1.705-1.635-3.021 0-1.46-.585-2.393-1.5-2.393-.825 0-1.5-.675-1.5-1.5 0-1.048-1.056-1.5-3.5-1.5-1.925 0-3.5.45-3.5 1m1116.638 19.5c-.361.941-1.89 1.5-4.107 1.5-1.942 0-3.531.45-3.531 1s-1.139 1-2.531 1c-1.393 0-2.791.675-3.107 1.5-.317.825-1.653 1.5-2.969 1.5-1.46 0-2.393.585-2.393 1.5 0 .847-.895 1.5-2.056 1.5-2.47 0-16.944 14.033-16.944 16.427 0 .9-.625 1.876-1.389 2.169-.8.307-1.176 1.35-.887 2.456.312 1.193-.11 2.159-1.111 2.543-.887.34-1.613 1.648-1.613 2.905s-.675 2.545-1.5 2.862c-.929.356-1.5 1.878-1.5 4 0 2.022-.577 3.645-1.408 3.964-2.078.798-2.095 27.544-.017 28.341.849.326 1.425 1.93 1.425 3.971 0 2.122.571 3.644 1.5 4 .825.317 1.5 1.615 1.5 2.886 0 1.27.519 2.482 1.152 2.693.634.212 1.222 1.319 1.306 2.461.166 2.25 2.746 5.322 4.471 5.322.589 0 1.071.95 1.071 2.11 0 2.104 8.453 11.346 10.46 11.437 1.831.082 5.54 2.891 5.54 4.194 0 .692.675 1.259 1.5 1.259 1 0 1.5 1 1.5 3s-.5 3-1.5 3c-1.179 0-1.5 1.389-1.5 6.5 0 6.225.103 6.5 2.441 6.5 1.343 0 2.719.45 3.059 1 .925 1.497 6.438 1.205 8.071-.429.786-.785 1.429-2.374 1.429-3.531s.675-2.362 1.5-2.678c.825-.317 1.5-1.653 1.5-2.969V866h13.031c10.661 0 13.136-.273 13.607-1.5.372-.968 1.919-1.5 4.362-1.5 2.243 0 3.996-.546 4.3-1.34.334-.869 1.599-1.182 3.596-.889 2.205.324 3.257-.005 3.699-1.159.341-.887 1.489-1.612 2.552-1.612s3.645-1.8 5.738-4c2.142-2.252 4.747-4 5.96-4 1.249 0 2.155-.631 2.155-1.5 0-.825.705-1.5 1.567-1.5 1.049 0 1.381-.59 1.002-1.783-.399-1.256.762-2.957 3.924-5.75 2.803-2.476 4.494-4.813 4.499-6.217.004-1.237.458-2.25 1.008-2.25s1-1.589 1-3.531c0-2.217.559-3.746 1.5-4.107.978-.376 1.5-1.931 1.5-4.469 0-2.794.424-3.893 1.5-3.893 1.246 0 1.5-1.944 1.5-11.5 0-9.556-.254-11.5-1.5-11.5-1.135 0-1.5-1.226-1.5-5.031 0-3.55-.442-5.201-1.5-5.607-.825-.317-1.5-1.653-1.5-2.969 0-1.316-.45-2.393-1-2.393s-1-1.058-1-2.35c0-1.434-1.17-3.247-3-4.65-1.65-1.265-3-3.164-3-4.221 0-2.088-2.212-4.779-3.929-4.779-.589 0-1.071-.675-1.071-1.5s-.675-1.5-1.5-1.5-1.5-.703-1.5-1.563c0-.979-.71-1.446-1.901-1.25-1.085.179-2.995-.867-4.452-2.437-1.403-1.513-3.425-2.75-4.492-2.75-1.068 0-2.2-.675-2.517-1.5-.316-.825-1.714-1.5-3.107-1.5-1.392 0-2.531-.45-2.531-1s-1.589-1-3.531-1c-2.217 0-3.746-.559-4.107-1.5-.474-1.233-3.03-1.5-14.362-1.5s-13.888.267-14.362 1.5M56.595 793.613c-.393 1.024-1.346 1.424-2.607 1.094-1.831-.479-1.988-.014-1.988 5.887 0 3.604.437 6.406 1 6.406.55 0 1 1.8 1 4 0 2.889.417 4 1.5 4 .857 0 1.5.9 1.5 2.1 0 2.197 5.974 8.9 7.931 8.9.623 0 1.391-.675 1.707-1.5.317-.825 1.653-1.5 2.969-1.5 1.778 0 2.393-.55 2.393-2.14 0-1.177.787-2.737 1.75-3.468 1.667-1.265 1.667-1.33 0-1.36-1.363-.025-1.75-.897-1.75-3.949 0-2.203-.536-4.095-1.226-4.325-.702-.234-1.122-1.776-.982-3.608.16-2.108-.274-3.398-1.274-3.782-.835-.32-1.518-1.559-1.518-2.753 0-4.533-8.889-7.952-10.405-4.002m20.655 66.883C75.767 862.18 75.557 871 77 871c.55 0 1 1.139 1 2.531 0 1.393.675 2.791 1.5 3.107.825.317 1.5 1.653 1.5 2.969 0 1.46.585 2.393 1.5 2.393.83 0 1.5.888 1.5 1.989 0 5.563 8.749 8.262 13 4.011 2.467-2.467 2.81-9.752.5-10.638-.978-.376-1.5-1.931-1.5-4.469 0-2.141-.45-3.893-1-3.893s-1-.742-1-1.649-1.553-3.157-3.45-5c-2.851-2.768-4.199-3.344-7.75-3.313-2.417.021-4.847.66-5.55 1.458m1039 54.145c-2.338 2.463-4.25 5.303-4.25 6.312 0 1.008-.667 2.089-1.483 2.402-.816.313-1.245 1.189-.955 1.947.291.758-.166 1.955-1.016 2.66-2.103 1.746-1.995 8.49.176 11.027 3.614 4.22 13.278 1.638 13.278-3.548 0-.845 1.237-2.688 2.75-4.096 1.513-1.407 2.616-3.192 2.453-3.965-.163-.774.399-1.674 1.25-2 2.34-.898 2.176-12.182-.203-13.988-3.451-2.62-7.46-1.535-12 3.249m-1005 8.85c-3.521 3.743-4.426 8.844-1.75 9.871.825.316 1.5 1.489 1.5 2.607 0 1.117.45 2.031 1 2.031s1 1.058 1 2.35c0 1.44 1.175 3.252 3.033 4.675 1.965 1.506 2.934 3.056 2.75 4.4-.258 1.892.268 2.092 5.967 2.267 4.865.149 6.25-.128 6.25-1.25 0-.793.675-1.442 1.5-1.442 1.039 0 1.5-1.044 1.5-3.393 0-2.094-.574-3.613-1.5-3.969-.825-.316-1.5-1.434-1.5-2.484s-.681-2.474-1.513-3.165c-.832-.691-1.395-1.823-1.25-2.515.145-.693-.974-2.412-2.487-3.819-1.513-1.408-2.75-3.481-2.75-4.607 0-1.493-.648-2.048-2.393-2.048-1.316 0-2.652-.675-2.969-1.5-.905-2.36-2.871-1.747-6.388 1.991m972.05 45.913c-.44.772-1.925 1.559-3.3 1.75-1.537.213-2.505.997-2.512 2.035-.015 2.021-5.81 8.811-7.519 8.811-.722 0-.987.824-.663 2.061.33 1.262-.013 2.273-.884 2.607-2.075.797-1.863 8.794.3 11.321 2.823 3.296 8.405 2.7 12.707-1.357 1.964-1.853 3.575-4.215 3.581-5.25.005-1.035 1.801-3.457 3.99-5.382 5.185-4.559 5.563-9.297 1.042-13.047-1.626-1.349-2.976-3.015-3-3.703-.057-1.697-2.751-1.587-3.742.154M153.362 980.5c-.317.825-1.653 1.5-2.969 1.5-2.172 0-2.393.419-2.393 4.531 0 6.444 1.962 6.721 7.467 1.057 4.307-4.432 4.419-4.698 2.788-6.603-2.02-2.359-4.095-2.565-4.893-.485m875.855 51.003c-3.456 3.574-6.718 6.497-7.25 6.497s-.967.675-.967 1.5-.675 1.5-1.5 1.5c-2.859 0-1.71 5.094 1.95 8.649 5.381 5.226 7.284 4.658 17.074-5.087 7.748-7.714 8.476-8.774 8.476-12.345 0-4.97-2.362-7.218-7.579-7.214-3.513.003-4.575.68-10.204 6.5m-832.967 4.916c-1.787 1.813-3.25 4.083-3.25 5.045 0 .962 4.025 5.751 8.944 10.642 8.358 8.31 9.216 8.894 13.072 8.894 5.216 0 6.984-1.772 6.984-7 0-3.863-.57-4.713-8.429-12.571-9.788-9.789-11.984-10.424-17.321-5.01m786.25 39.045c-1.1 1.344-2.77 2.464-3.712 2.49-.941.025-3.754 2.031-6.25 4.457-3.921 3.811-4.538 4.965-4.538 8.488 0 5.598 2.332 8.113 7.472 8.059 3.215-.034 4.523-.64 6.481-3 1.349-1.627 3.041-2.958 3.76-2.958.719 0 3.328-1.901 5.797-4.225 3.91-3.679 4.49-4.758 4.49-8.345 0-5.201-2.28-7.434-7.579-7.42-2.938.008-4.422.623-5.921 2.454m-733.75 7.429c-1.021 1.036-1.75 3.291-1.75 5.415 0 3.095.884 4.545 5.896 9.667 3.315 3.387 6.77 6.025 7.893 6.025 1.098 0 2.256.675 2.573 1.5.886 2.31 8.171 1.967 10.638-.5 3.338-3.338 2.681-8.621-1.571-12.632-1.964-1.852-4.24-3.368-5.057-3.368-1.489 0-7.372-5.764-7.372-7.223 0-1.621-9.478-.681-11.25 1.116M930 1114.5c0 .933-.944 1.5-2.5 1.5-1.375 0-2.5.45-2.5 1s-1.058 1-2.35 1c-1.434 0-3.247 1.17-4.65 3-1.265 1.65-3.164 3-4.221 3-3.039 0-4.779 2.519-4.779 6.917 0 6.15 2.205 8.083 9.222 8.083 3.658 0 5.778-.418 5.778-1.14 0-1.406 3.019-3.785 4.858-3.828 2.254-.053 11.142-9.665 11.142-12.05 0-2.526-6.038-8.982-8.4-8.982-.88 0-1.6.675-1.6 1.5m-623.75 9.971c-1.788 1.785-3.25 4.269-3.25 5.52 0 2.681 6.296 9.009 8.964 9.009 1.002 0 2.081.675 2.398 1.5.316.825 1.377 1.514 2.357 1.532 2.187.039 5.281 2.282 5.281 3.828 0 .701 1.925 1.14 5 1.14 3.778 0 5-.367 5-1.5 0-.825.675-1.5 1.5-1.5 1.077 0 1.5-1.101 1.5-3.906 0-3.32-.737-4.671-4.91-9-2.828-2.935-5.795-5.094-7-5.094-1.149 0-2.09-.45-2.09-1s-1.125-1-2.5-1c-1.556 0-2.5-.567-2.5-1.5 0-2.849-6.175-1.601-9.75 1.971m561.712 25.075c-.705.85-1.902 1.307-2.66 1.016-.758-.29-1.634.139-1.947.955-.368.959-1.944 1.483-4.462 1.483-2.794 0-3.893.424-3.893 1.5 0 .83-.888 1.5-1.989 1.5-4.055 0-6.011 3.001-6.011 9.222 0 5.428.145 5.778 2.393 5.778 1.316 0 2.652.675 2.969 1.5.316.825 1.278 1.5 2.138 1.5.86 0 1.822-.675 2.138-1.5.317-.825 1.605-1.5 2.862-1.5 1.257 0 2.545-.675 2.862-1.5.316-.825 1.714-1.5 3.107-1.5 1.392 0 2.531-.45 2.531-1s.914-1 2.031-1c1.118 0 2.291-.675 2.607-1.5.317-.825 1.653-1.5 2.969-1.5 2.175 0 2.393-.416 2.393-4.577 0-3.725-.544-5.121-2.923-7.5-3.277-3.277-5.225-3.654-7.115-1.377m-494.93 4.704c-.022 1.192-.83 1.75-2.532 1.75-1.97 0-2.5.507-2.5 2.393 0 1.316-.675 2.652-1.5 2.969-.825.316-1.5 1.084-1.5 1.707 0 1.957 6.703 7.931 8.9 7.931 1.2 0 2.1.643 2.1 1.5 0 .933.944 1.5 2.5 1.5 1.375 0 2.5.45 2.5 1s1.8 1 4 1c2.889 0 4 .417 4 1.5 0 .825.72 1.5 1.6 1.5 2.37 0 8.4-6.46 8.4-9 0-2.745-6.111-9-8.793-9-1.096 0-2.252-.675-2.569-1.5-.316-.825-1.489-1.5-2.607-1.5-1.117 0-2.031-.45-2.031-1s-1.638-1-3.64-1c-2.293 0-4.131-.647-4.968-1.75-1.265-1.667-1.33-1.667-1.36 0M804 1176c0 .55-1.589 1-3.531 1-2.217 0-3.746.559-4.107 1.5-.376.978-1.931 1.5-4.469 1.5-2.794 0-3.893.424-3.893 1.5 0 .83-.888 1.5-1.989 1.5-5.563 0-8.262 8.749-4.011 13 2.467 2.467 9.752 2.81 10.638.5.35-.91 1.862-1.5 3.847-1.5 1.798 0 3.86-.711 4.582-1.58.821-.99 2.265-1.398 3.861-1.093 4.238.81 11.765-8.263 7.92-9.544-.634-.212-1.232-1.487-1.328-2.834-.132-1.853-.825-2.526-2.847-2.765-1.47-.174-2.673-.737-2.673-1.25 0-.514-.45-.934-1-.934s-1 .45-1 1m-370.25 6.083c-3.953 4.33-1.12 12.917 4.261 12.917 1.101 0 1.989.67 1.989 1.5 0 1.078 1.102 1.5 3.917 1.5 2.244 0 4.094.534 4.333 1.25.282.845 2.739 1.25 7.583 1.25 6.795 0 7.167-.118 7.167-2.281 0-1.255.675-2.541 1.5-2.857.825-.317 1.5-1.171 1.5-1.898 0-2.185-6.579-8.464-8.868-8.464-1.173 0-2.132-.45-2.132-1s-1.589-1-3.531-1c-2.217 0-3.746-.559-4.107-1.5-.904-2.355-11.338-1.908-13.612.583M507 1197.5c0 .933-.944 1.5-2.5 1.5-2.363 0-2.5.301-2.5 5.489 0 7.339 1.853 9.511 8.115 9.511 3.23 0 4.849.463 5.247 1.5.803 2.093 14.638 2.194 14.638.107 0-.766.675-1.652 1.5-1.969 2.324-.892 2.107-11.513-.25-12.242-.962-.298-2.531-.959-3.486-1.469-.955-.51-4.845-.927-8.643-.927-5.217 0-7.048-.367-7.483-1.5-.316-.825-1.489-1.5-2.607-1.5-1.139 0-2.031.659-2.031 1.5m214.362 0c-.376.978-1.931 1.5-4.469 1.5-3.439 0-3.893.279-3.893 2.393 0 1.316-.675 2.652-1.5 2.969-.825.316-1.5 1.216-1.5 2 0 .783.675 1.683 1.5 2 .825.316 1.5 1.714 1.5 3.107 0 2.521.037 2.531 9 2.531 7.333 0 9-.278 9-1.5 0-1.136 1.23-1.5 5.071-1.5 6.425 0 8.419-1.81 8.457-7.678.017-2.651-.425-4.322-1.143-4.322-.644 0-1.43-.675-1.747-1.5-.456-1.189-2.56-1.5-10.138-1.5-7.578 0-9.682.311-10.138 1.5m-61.724 8c-.441 1.151-2.342 1.5-8.178 1.5-8.926 0-10.46 1.015-10.46 6.917 0 7.384 1.445 8.083 16.722 8.083 11.945 0 13.479-.201 15.278-2 5.338-5.338-.521-16-8.793-16-2.627 0-4.19.513-4.569 1.5m-86.888 3.393c-2.427 2.461-2.289 8.568.25 11.107 1.644 1.644 3.333 2 9.5 2 6 0 7.5.3 7.5 1.5 0 1.048 1.056 1.5 3.5 1.5s3.5-.452 3.5-1.5c0-.894.92-1.5 2.278-1.5 2.89 0 5.722-3.26 5.722-6.588 0-1.503-1.211-3.777-2.923-5.489-2.923-2.922-2.926-2.923-15.25-2.864-10.43.051-12.596.333-14.077 1.834" fill="undefined" fill-rule="evenodd"/></svg>