<svg xmlns="http://www.w3.org/2000/svg" width="192" height="192"><path d="M0 96.005v96.005l96.25-.255 96.25-.255.255-95.75L193.01 0H0v96.005m.48.495c0 52.8.122 74.253.27 47.674.148-26.579.148-69.779 0-96C.601 21.953.48 43.7.48 96.5m47.591-54.748c-1.886.961-4.361 3.018-5.5 4.571C40.546 49.084 40.5 50.186 40.5 96s.046 46.916 2.071 49.677c4.66 6.352 4.391 6.32 53.429 6.32 49.038 0 48.769.032 53.429-6.32 2.025-2.761 2.071-3.863 2.071-49.677s-.046-46.916-2.071-49.677c-4.66-6.352-4.391-6.32-53.429-6.32-40.392 0-44.817.162-47.929 1.749m3.5 9.819C50.192 52.951 50 58.372 50 96s.192 43.049 1.571 44.429C52.951 141.808 58.372 142 96 142s43.049-.192 44.429-1.571C141.808 139.049 142 133.628 142 96s-.192-43.049-1.571-44.429C139.049 50.192 133.628 50 96 50s-43.049.192-44.429 1.571m51.314 38.084l-11.8 11.654-6.579-6.154C80.888 91.77 77.113 89 76.118 89c-2.744 0-5.455 3.526-4.773 6.21.732 2.883 15.357 17.347 18.482 18.28 2.013.6 4.213-1.175 16.293-13.144 7.681-7.611 14.239-14.929 14.574-16.261.447-1.783.01-2.906-1.654-4.254-1.244-1.007-2.733-1.831-3.308-1.831-.576 0-6.357 5.245-12.847 11.655" fill="undefined" fill-rule="evenodd"/></svg>